<svg width="267" height="57" viewBox="0 0 267 57" fill="none" xmlns="http://www.w3.org/2000/svg">
<path d="M16.575 53.225C12.6 53.075 8.55 53.45 4.575 53.375C4.35 53.375 4.2 53.375 4.05 53.375V53.225C3.9 52.4 3.825 51.5 3.75 50.675C3.3 44.375 3.3 37.925 3.375 31.625C3.375 24.575 3.525 17.6 4.05 10.625C4.2 8.6 4.275 6.65 4.8 4.7V4.625C5.475 4.625 6.15 4.7 6.75 4.7C9.675 4.775 12.525 4.625 15.45 4.55C17.175 4.55 17.175 1.925 15.45 1.925C12.225 2 9.075 2.15 5.85 2.075C4.725 2.075 3.525 1.775 2.775 2.825C1.8 4.25 1.8 6.425 1.65 8C0.75 15.8 0.75 23.75 0.75 31.625C0.675 38.45 0.6 45.5 1.275 52.325C1.425 53.675 1.425 55.4 3 55.85C7.2 56.975 12.3 55.7 16.575 55.85C18.3 55.925 18.3 53.3 16.575 53.225ZM4.425 4.625C4.275 4.625 4.2 4.625 4.125 4.625H4.425ZM40.1326 53.45C36.6076 53.975 32.9326 53.975 29.4076 53.675C28.7326 53.6 28.2826 53.375 28.1326 53.45V51.725C28.1326 45.8 28.2076 39.95 28.2826 34.025C28.3576 27.125 28.4326 20.15 28.3576 13.175C28.3576 10.7 28.3576 8.15 28.2826 5.675C28.2826 4.7 28.3576 3.2 27.8326 2.3C27.0076 0.874999 24.7576 2.15 25.5826 3.65C25.3576 3.275 25.5826 3.875 25.5826 4.325C25.6576 5.225 25.6576 6.125 25.7326 7.1C25.8076 10.025 25.8076 13.025 25.8076 16.025C25.8076 23.75 25.6576 31.4 25.5826 39.125C25.5826 44.075 25.3576 49.025 25.5076 53.9C25.5826 56 27.7576 56.075 29.4076 56.3C33.0826 56.675 37.1326 56.525 40.8076 56C42.4576 55.7 41.7826 53.225 40.1326 53.45ZM52.2346 1.85C51.9346 0.124995 49.4596 0.874999 49.6846 2.525C49.6096 1.925 49.6846 2.9 49.6846 3.05V5.075C49.7596 7.175 49.7596 9.275 49.7596 11.45C49.7596 17.75 49.6846 24.05 49.6846 30.425C49.6846 36.275 49.6096 42.125 49.6096 47.975C49.6096 49.775 48.7096 54.425 50.0596 56C51.1096 57.275 52.9846 55.4 51.8596 54.125C52.0846 54.35 52.2346 54.575 52.2346 54.725V54.275C52.2346 53.75 52.2346 53.15 52.2346 52.625V46.55C52.2346 40.55 52.3096 34.475 52.3096 28.475C52.3096 22.475 52.3846 16.4 52.3846 10.4C52.3846 7.625 52.6846 4.625 52.2346 1.85ZM77.9297 53C72.9047 53.6 67.6547 53.825 62.5547 53.6C62.5547 44.675 62.7047 35.75 62.7797 26.75C66.9047 26.9 71.1797 26.6 75.3047 26.15C76.9547 26 77.0297 23.375 75.3047 23.525C71.1797 24.05 66.9797 24.275 62.7797 24.125C62.8547 17.6 62.9297 11.075 62.9297 4.475C67.8797 4.7 73.0547 4.475 77.9297 3.875C79.5797 3.725 79.5797 1.1 77.9297 1.25C72.8297 1.85 67.4297 2.075 62.2547 1.85C61.5047 1.475 60.3047 1.85 60.3047 2.975C60.3797 20.225 59.9297 37.4 59.9297 54.575C59.9297 55.25 60.3797 55.7 60.9047 55.775C61.1297 56 61.4297 56.225 61.8047 56.225C67.1297 56.45 72.6797 56.225 77.9297 55.625C79.5797 55.475 79.5797 52.85 77.9297 53ZM104.606 2.3C104.681 0.574998 102.056 0.574998 101.981 2.3C101.456 17.525 102.131 32.75 102.206 48.05C99.9557 41.375 98.1557 34.175 96.1307 27.575C93.6557 19.325 90.4307 10.925 88.7057 2.45C88.3307 0.949998 86.0807 1.325 86.0807 2.75V29.075C86.0807 37.775 85.7807 46.55 86.1557 55.25C86.2307 56.9 88.8557 56.9 88.7807 55.25C88.4057 46.55 88.7057 37.775 88.7057 29.075V13.025C90.3557 18.35 92.2307 23.675 93.8057 28.925C96.5057 37.85 98.7557 47.225 102.431 55.85C102.956 57.05 104.831 56.375 104.831 55.175C104.981 37.55 104.006 19.85 104.606 2.3ZM132.998 2.675C125.573 2.15 117.623 2.225 110.273 3.125C108.623 3.275 108.623 5.9 110.273 5.75C113.423 5.375 116.648 5.15 119.873 5V5.075C119.873 5.075 120.473 38.525 120.098 55.175C120.023 56.9 122.648 56.825 122.723 55.1C123.098 38.45 122.498 22.1 122.498 5.075V5C126.023 4.925 129.548 5.075 132.998 5.3C134.648 5.375 134.648 2.825 132.998 2.675ZM197.889 30.275C194.214 25.925 188.739 22.925 187.389 17C186.564 13.325 186.564 9.275 186.864 5.525C189.714 5.15 192.564 4.925 195.414 4.925C197.739 5 199.314 5 199.614 7.625C199.914 10.325 199.464 13.025 199.389 15.725C199.389 17.375 202.014 17.375 202.014 15.725C202.089 11.225 204.114 3.725 198.114 2.6C193.989 1.85 189.414 2.45 185.289 3.05C184.689 3.2 184.389 3.8 184.314 4.325C184.014 8.15 184.014 12.05 184.539 15.875C185.214 21.125 188.139 24.5 191.964 28.025C194.064 30.05 196.164 32 197.814 34.4C199.389 36.875 199.464 39.65 199.539 42.5V53.6C195.189 53.6 190.914 53.675 186.639 53.675C186.339 50.075 185.664 45.875 186.489 42.5C186.864 40.85 184.314 40.1 183.939 41.75C182.964 45.875 183.864 50.825 184.164 55.025C184.164 55.7 184.689 56.3 185.439 56.3C190.539 56.3 195.714 56.225 200.814 56.225C201.489 56.225 202.089 55.625 202.089 54.875C202.164 50.975 202.164 47.075 202.164 43.175C202.089 38.075 201.339 34.25 197.889 30.275ZM212.781 1.85C212.481 0.124995 210.006 0.874999 210.231 2.525C210.156 1.925 210.231 2.9 210.231 3.05V5.075C210.306 7.175 210.306 9.275 210.306 11.45C210.306 17.75 210.231 24.05 210.231 30.425C210.231 36.275 210.156 42.125 210.156 47.975C210.156 49.775 209.256 54.425 210.606 56C211.656 57.275 213.531 55.4 212.406 54.125C212.631 54.35 212.781 54.575 212.781 54.725V54.275C212.781 53.75 212.781 53.15 212.781 52.625V46.55C212.781 40.55 212.856 34.475 212.856 28.475C212.856 22.475 212.931 16.4 212.931 10.4C212.931 7.625 213.231 4.625 212.781 1.85ZM238.552 9.425C238.402 7.7 238.327 5.225 237.202 3.8C236.227 2.675 234.202 2.675 232.852 2.525C229.327 2.15 225.727 2.75 222.202 2.75C221.452 2.675 221.077 3.2 220.927 3.725C220.927 3.8 220.852 3.875 220.852 4.025C220.252 6.5 220.552 9.5 220.552 12.05C220.477 17.675 220.552 23.3 220.552 28.925C220.552 37.475 221.152 46.25 220.552 54.8C220.552 55.025 220.552 55.25 220.627 55.475C220.852 56.525 222.427 57.125 223.027 55.925C222.652 56.75 222.877 56.3 224.002 56.3H226.702C228.877 56.3 230.977 56.375 233.077 56.3C235.252 56.225 238.102 56.225 238.477 53.6C239.302 47.225 239.152 40.625 239.227 34.25C239.302 26 239.377 17.6 238.552 9.425ZM236.527 36.275C236.452 41.9 236.527 47.675 235.852 53.375V53.45C235.852 53.675 235.777 53.525 235.852 53.375C235.177 53.6 234.352 53.6 233.677 53.675C231.802 53.825 229.852 53.75 227.977 53.675C227.077 53.675 224.977 53.375 223.252 53.525C223.702 45.575 223.177 37.475 223.177 29.6C223.102 24.125 223.102 18.575 223.177 13.1C223.177 10.775 222.952 7.4 223.252 5.3C226.627 5.075 234.727 4.1 235.327 5.9C236.077 8 236.077 10.475 236.227 12.725C236.752 20.525 236.677 28.4 236.527 36.275ZM264.771 53C259.746 53.6 254.496 53.825 249.396 53.6C249.396 44.675 249.546 35.75 249.621 26.75C253.746 26.9 258.021 26.6 262.146 26.15C263.796 26 263.871 23.375 262.146 23.525C258.021 24.05 253.821 24.275 249.621 24.125C249.696 17.6 249.771 11.075 249.771 4.475C254.721 4.7 259.896 4.475 264.771 3.875C266.421 3.725 266.421 1.1 264.771 1.25C259.671 1.85 254.271 2.075 249.096 1.85C248.346 1.475 247.146 1.85 247.146 2.975C247.221 20.225 246.771 37.4 246.771 54.575C246.771 55.25 247.221 55.7 247.746 55.775C247.971 56 248.271 56.225 248.646 56.225C253.971 56.45 259.521 56.225 264.771 55.625C266.421 55.475 266.421 52.85 264.771 53Z" fill="black"/>
</svg>
