<svg width="332" height="56" viewBox="0 0 332 56" fill="none" xmlns="http://www.w3.org/2000/svg">
<path d="M16.575 52.225C12.6 52.075 8.55 52.45 4.575 52.375C4.35 52.375 4.2 52.375 4.05 52.375V52.225C3.9 51.4 3.825 50.5 3.75 49.675C3.3 43.375 3.3 36.925 3.375 30.625C3.375 23.575 3.525 16.6 4.05 9.625C4.2 7.6 4.275 5.65 4.8 3.7V3.625C5.475 3.625 6.15 3.7 6.75 3.7C9.675 3.775 12.525 3.625 15.45 3.55C17.175 3.55 17.175 0.924999 15.45 0.924999C12.225 0.999998 9.075 1.15 5.85 1.075C4.725 1.075 3.525 0.774996 2.775 1.825C1.8 3.25 1.8 5.425 1.65 7C0.75 14.8 0.75 22.75 0.75 30.625C0.675 37.45 0.6 44.5 1.275 51.325C1.425 52.675 1.425 54.4 3 54.85C7.2 55.975 12.3 54.7 16.575 54.85C18.3 54.925 18.3 52.3 16.575 52.225ZM4.425 3.625C4.275 3.625 4.2 3.625 4.125 3.625H4.425ZM43.3576 6.475C43.2076 4.975 43.2826 2.2 41.5576 1.525C39.0826 0.549999 35.4826 0.999998 32.9326 1.075C30.8326 1.075 28.8076 1.225 26.7826 1.375C26.4826 1.45 26.2576 1.525 26.0326 1.675C25.8076 1.825 25.6576 2.05 25.5076 2.35C24.8326 4.225 25.2076 6.925 25.1326 8.875L24.6826 21.7C24.4576 31.15 24.0826 40.675 24.4576 50.05C24.5326 53.125 25.6576 54.4 28.8076 55C32.4076 55.675 38.8576 56.05 42.0826 53.65C43.8826 52.3 43.5076 48.4 43.5826 46.45C43.8826 41.5 43.9576 36.625 44.0326 31.75C44.1076 22.75 44.2576 15.4 43.3576 6.475ZM41.1076 43.975C41.0326 45.85 41.4826 51.325 39.8326 51.925C38.1826 52.45 27.4576 53.875 27.1576 51.475C26.1826 43.075 27.0076 34.225 27.2326 25.75C27.3076 20.2 27.4576 16.3 27.6826 10.75L27.9076 5.35C27.9076 4.975 27.9826 4.45 27.9826 3.925C29.6326 3.85 31.2826 3.7 32.9326 3.7C34.6576 3.625 36.3826 3.625 38.1076 3.775C38.8576 3.775 39.6076 3.85 40.3576 4C41.2576 7 41.1076 10.6 41.1826 13.75C41.6326 24.325 41.5576 33.325 41.1076 43.975ZM69.1564 1.3C69.2314 -0.425002 66.6064 -0.425002 66.5314 1.3C66.0064 16.525 66.6814 31.75 66.7564 47.05C64.5064 40.375 62.7064 33.175 60.6814 26.575C58.2064 18.325 54.9814 9.925 53.2564 1.45C52.8814 -0.050002 50.6314 0.324998 50.6314 1.75V28.075C50.6314 36.775 50.3314 45.55 50.7064 54.25C50.7814 55.9 53.4064 55.9 53.3314 54.25C52.9564 45.55 53.2564 36.775 53.2564 28.075V12.025C54.9064 17.35 56.7814 22.675 58.3564 27.925C61.0564 36.85 63.3064 46.225 66.9814 54.85C67.5064 56.05 69.3814 55.375 69.3814 54.175C69.5314 36.55 68.5564 18.85 69.1564 1.3ZM97.5486 1.675C90.1236 1.15 82.1736 1.225 74.8236 2.125C73.1736 2.275 73.1736 4.9 74.8236 4.75C77.9736 4.375 81.1986 4.15 84.4236 4V4.075C84.4236 4.075 85.0236 37.525 84.6486 54.175C84.5736 55.9 87.1986 55.825 87.2736 54.1C87.6486 37.45 87.0486 21.1 87.0486 4.075V4C90.5736 3.925 94.0986 4.075 97.5486 4.3C99.1986 4.375 99.1986 1.825 97.5486 1.675ZM121.744 53.65C119.419 46.225 116.344 39.025 113.494 31.75C115.444 31.675 117.919 31.525 119.269 30.325C120.394 29.275 120.394 27.25 120.619 25.825C120.994 22.825 121.069 19.825 121.144 16.75C121.294 12.775 121.969 6.775 119.869 3.175C119.044 1.675 116.569 1.9 115.144 1.825C111.619 1.6 108.094 1.525 104.569 1.75C103.669 1.75 103.369 2.5 103.444 3.25C103.369 3.325 103.444 3.475 103.444 3.625C103.444 20.425 103.069 37.75 103.069 54.025C103.069 55.975 105.619 55.975 105.619 54.025C105.694 46.675 105.694 39.175 105.769 31.675C107.419 31.9 109.069 31.9 110.794 31.9C113.644 39.325 116.794 46.75 119.269 54.4C119.719 55.975 122.269 55.3 121.744 53.65ZM105.769 28.975C105.844 20.8 105.844 12.475 105.844 4.3C107.869 4.225 109.894 4.225 111.919 4.3C112.819 4.3 117.394 4.075 117.769 4.675C118.444 5.95 118.369 7.9 118.444 9.325C118.594 11.575 118.594 13.825 118.594 16.075C118.519 20.05 118.444 24.175 117.619 28.075C117.169 30.1 107.944 29.35 105.769 28.975ZM146.116 6.475C145.966 4.975 146.041 2.2 144.316 1.525C141.841 0.549999 138.241 0.999998 135.691 1.075C133.591 1.075 131.566 1.225 129.541 1.375C129.241 1.45 129.016 1.525 128.791 1.675C128.566 1.825 128.416 2.05 128.266 2.35C127.591 4.225 127.966 6.925 127.891 8.875L127.441 21.7C127.216 31.15 126.841 40.675 127.216 50.05C127.291 53.125 128.416 54.4 131.566 55C135.166 55.675 141.616 56.05 144.841 53.65C146.641 52.3 146.266 48.4 146.341 46.45C146.641 41.5 146.716 36.625 146.791 31.75C146.866 22.75 147.016 15.4 146.116 6.475ZM143.866 43.975C143.791 45.85 144.241 51.325 142.591 51.925C140.941 52.45 130.216 53.875 129.916 51.475C128.941 43.075 129.766 34.225 129.991 25.75C130.066 20.2 130.216 16.3 130.441 10.75L130.666 5.35C130.666 4.975 130.741 4.45 130.741 3.925C132.391 3.85 134.041 3.7 135.691 3.7C137.416 3.625 139.141 3.625 140.866 3.775C141.616 3.775 142.366 3.85 143.116 4C144.016 7 143.866 10.6 143.941 13.75C144.391 24.325 144.316 33.325 143.866 43.975ZM167.94 52.45C164.415 52.975 160.74 52.975 157.215 52.675C156.54 52.6 156.09 52.375 155.94 52.45V50.725C155.94 44.8 156.015 38.95 156.09 33.025C156.165 26.125 156.24 19.15 156.165 12.175C156.165 9.7 156.165 7.15 156.09 4.675C156.09 3.7 156.165 2.2 155.64 1.3C154.815 -0.125001 152.565 1.15 153.39 2.65C153.165 2.275 153.39 2.875 153.39 3.325C153.465 4.225 153.465 5.125 153.54 6.1C153.615 9.025 153.615 12.025 153.615 15.025C153.615 22.75 153.465 30.4 153.39 38.125C153.39 43.075 153.165 48.025 153.315 52.9C153.39 55 155.565 55.075 157.215 55.3C160.89 55.675 164.94 55.525 168.615 55C170.265 54.7 169.59 52.225 167.94 52.45ZM242.413 1.075C238.288 1.45 234.013 1.15 229.888 1.3C228.013 1.3 223.438 0.924999 222.463 3.025C221.938 4.225 222.163 5.95 222.163 7.225C222.088 10.375 222.163 11.725 222.163 14.875V21.85C222.163 22.075 222.163 22.225 222.238 22.45C222.388 33.025 222.688 43.6 222.313 54.1C222.238 55.825 224.863 55.825 224.863 54.1C225.313 43.975 224.938 33.775 224.788 23.575C228.838 23.65 232.963 23.425 236.938 22.975C238.588 22.75 238.588 20.125 236.938 20.35C232.963 20.8 228.838 21.025 224.788 20.95V18.7C224.713 13.45 224.638 10 224.788 4.825C224.863 4.675 224.863 4.525 224.863 4.3H225.013C226.738 3.775 228.838 3.925 230.638 3.85C234.538 3.775 238.513 4.075 242.413 3.7C244.063 3.55 244.138 0.924999 242.413 1.075ZM262.862 52.45C259.337 52.975 255.662 52.975 252.137 52.675C251.462 52.6 251.012 52.375 250.862 52.45V50.725C250.862 44.8 250.937 38.95 251.012 33.025C251.087 26.125 251.162 19.15 251.087 12.175C251.087 9.7 251.087 7.15 251.012 4.675C251.012 3.7 251.087 2.2 250.562 1.3C249.737 -0.125001 247.487 1.15 248.312 2.65C248.087 2.275 248.312 2.875 248.312 3.325C248.387 4.225 248.387 5.125 248.462 6.1C248.537 9.025 248.537 12.025 248.537 15.025C248.537 22.75 248.387 30.4 248.312 38.125C248.312 43.075 248.087 48.025 248.237 52.9C248.312 55 250.487 55.075 252.137 55.3C255.812 55.675 259.862 55.525 263.537 55C265.187 54.7 264.512 52.225 262.862 52.45ZM289.964 6.475C289.814 4.975 289.889 2.2 288.164 1.525C285.689 0.549999 282.089 0.999998 279.539 1.075C277.439 1.075 275.414 1.225 273.389 1.375C273.089 1.45 272.864 1.525 272.639 1.675C272.414 1.825 272.264 2.05 272.114 2.35C271.439 4.225 271.814 6.925 271.739 8.875L271.289 21.7C271.064 31.15 270.689 40.675 271.064 50.05C271.139 53.125 272.264 54.4 275.414 55C279.014 55.675 285.464 56.05 288.689 53.65C290.489 52.3 290.114 48.4 290.189 46.45C290.489 41.5 290.564 36.625 290.639 31.75C290.714 22.75 290.864 15.4 289.964 6.475ZM287.714 43.975C287.639 45.85 288.089 51.325 286.439 51.925C284.789 52.45 274.064 53.875 273.764 51.475C272.789 43.075 273.614 34.225 273.839 25.75C273.914 20.2 274.064 16.3 274.289 10.75L274.514 5.35C274.514 4.975 274.589 4.45 274.589 3.925C276.239 3.85 277.889 3.7 279.539 3.7C281.264 3.625 282.989 3.625 284.714 3.775C285.464 3.775 286.214 3.85 286.964 4C287.864 7 287.714 10.6 287.789 13.75C288.239 24.325 288.164 33.325 287.714 43.975ZM329.413 1.45C326.263 17.275 323.338 33.025 320.413 49.15C318.913 45.025 317.338 41.275 315.763 37.225C315.313 36.025 313.738 35.8 313.288 37.075C311.863 41.05 310.438 45.175 309.013 49.075C306.163 33.475 303.388 17.35 299.638 1.675C299.263 0.024997 296.713 0.849995 297.088 2.5C301.288 19.75 304.213 37.3 307.363 54.7C307.588 56.05 309.538 55.825 309.913 54.775C311.488 50.275 312.988 45.625 314.563 41.275C316.288 45.55 317.938 49.975 319.588 54.325C320.038 55.375 321.838 55.675 322.138 54.25C325.363 36.85 328.438 19.45 331.963 2.125C332.263 0.474996 329.788 -0.200005 329.413 1.45Z" fill="black"/>
</svg>
