<svg width="205" height="56" viewBox="0 0 205 56" fill="none" xmlns="http://www.w3.org/2000/svg">
<path d="M18.825 8.425C18.675 6.7 18.6 4.225 17.475 2.8C16.5 1.675 14.475 1.675 13.125 1.525C9.6 1.15 6 1.75 2.475 1.75C1.725 1.675 1.35 2.2 1.2 2.725C1.2 2.8 1.125 2.875 1.125 3.025C0.525 5.5 0.825 8.5 0.825 11.05C0.75 16.675 0.825 22.3 0.825 27.925C0.825 36.475 1.425 45.25 0.825 53.8C0.825 54.025 0.825 54.25 0.9 54.475C1.125 55.525 2.7 56.125 3.3 54.925C2.925 55.75 3.15 55.3 4.275 55.3H6.975C9.15 55.3 11.25 55.375 13.35 55.3C15.525 55.225 18.375 55.225 18.75 52.6C19.575 46.225 19.425 39.625 19.5 33.25C19.575 25 19.65 16.6 18.825 8.425ZM16.8 35.275C16.725 40.9 16.8 46.675 16.125 52.375V52.45C16.125 52.675 16.05 52.525 16.125 52.375C15.45 52.6 14.625 52.6 13.95 52.675C12.075 52.825 10.125 52.75 8.25 52.675C7.35 52.675 5.25 52.375 3.525 52.525C3.975 44.575 3.45 36.475 3.45 28.6C3.375 23.125 3.375 17.575 3.45 12.1C3.45 9.775 3.225 6.4 3.525 4.3C6.9 4.075 15 3.1 15.6 4.9C16.35 7 16.35 9.475 16.5 11.725C17.025 19.525 16.95 27.4 16.8 35.275ZM45.0439 52C40.0189 52.6 34.7689 52.825 29.6689 52.6C29.6689 43.675 29.8189 34.75 29.8939 25.75C34.0189 25.9 38.2939 25.6 42.4189 25.15C44.0689 25 44.1439 22.375 42.4189 22.525C38.2939 23.05 34.0939 23.275 29.8939 23.125C29.9689 16.6 30.0439 10.075 30.0439 3.475C34.9939 3.7 40.1689 3.475 45.0439 2.875C46.6939 2.725 46.6939 0.099996 45.0439 0.249999C39.9439 0.849995 34.5439 1.075 29.3689 0.849995C28.6189 0.474996 27.4189 0.849995 27.4189 1.975C27.4939 19.225 27.0439 36.4 27.0439 53.575C27.0439 54.25 27.4939 54.7 28.0189 54.775C28.2439 55 28.5439 55.225 28.9189 55.225C34.2439 55.45 39.7939 55.225 45.0439 54.625C46.6939 54.475 46.6939 51.85 45.0439 52ZM74.1756 1.075C70.0506 1.45 65.7756 1.15 61.6506 1.3C59.7756 1.3 55.2006 0.924999 54.2256 3.025C53.7006 4.225 53.9256 5.95 53.9256 7.225C53.8506 10.375 53.9256 11.725 53.9256 14.875V21.85C53.9256 22.075 53.9256 22.225 54.0006 22.45C54.1506 33.025 54.4506 43.6 54.0756 54.1C54.0006 55.825 56.6256 55.825 56.6256 54.1C57.0756 43.975 56.7006 33.775 56.5506 23.575C60.6006 23.65 64.7256 23.425 68.7006 22.975C70.3506 22.75 70.3506 20.125 68.7006 20.35C64.7256 20.8 60.6006 21.025 56.5506 20.95V18.7C56.4756 13.45 56.4006 10 56.5506 4.825C56.6256 4.675 56.6256 4.525 56.6256 4.3H56.7756C58.5006 3.775 60.6006 3.925 62.4006 3.85C66.3006 3.775 70.2756 4.075 74.1756 3.7C75.8256 3.55 75.9006 0.924999 74.1756 1.075ZM95.6303 53.425C94.0553 43.3 92.4803 33.025 90.7553 22.825C89.8553 17.65 89.0303 12.55 87.9803 7.375C87.6053 5.8 87.4553 3.475 86.4053 2.2C85.2803 0.849995 83.8553 1.525 83.1053 2.875C81.7553 5.5 81.7553 9.4 81.3803 12.25C80.7053 17.125 80.0303 21.925 79.4303 26.8C78.2303 35.65 77.1053 44.65 75.6053 53.425C75.3803 55.15 77.8553 55.825 78.1553 54.25C78.9053 49.9 79.5053 45.475 80.1053 41.2H80.1803C81.7553 40.525 84.0053 40.675 85.7303 40.6C87.3053 40.525 89.5553 40.225 91.0553 40.75C91.7303 45.25 92.4803 49.75 93.1553 54.25C93.3053 55.825 95.9303 55.15 95.6303 53.425ZM85.7303 37.975C84.0803 37.975 82.2053 37.975 80.5553 38.35C81.9053 28.225 83.1053 18.175 84.6053 8.05C84.6803 7.3 84.7553 6.625 84.9803 5.95C85.2803 7.525 85.6553 9.175 85.9553 10.825C86.9303 15.85 87.8303 20.875 88.6553 25.825C89.2553 29.875 89.9303 33.925 90.6053 37.9C89.0303 37.75 87.1553 37.9 85.7303 37.975ZM125.644 1.525C125.269 -0.125001 122.719 0.549999 123.169 2.2C123.019 1.675 123.169 3.475 123.169 3.925C123.169 5.65 123.169 7.3 123.094 9.025C123.094 14.125 123.019 19.15 122.944 24.175C122.869 33.25 122.794 42.25 122.494 51.325C122.494 51.55 122.494 51.775 122.419 51.85C121.669 52.225 120.619 52.3 119.869 52.375C117.094 52.75 114.169 52.75 111.394 52.6C110.194 52.525 108.919 52.45 107.719 52.225C107.269 52.15 106.069 51.55 106.294 52.075C105.769 50.8 105.844 49.075 105.769 47.725C105.244 35.575 105.919 23.275 106.144 11.125C106.219 8.275 106.294 5.35 106.294 2.5C106.294 0.849995 103.669 0.849995 103.669 2.5C103.669 14.725 103.069 26.95 103.069 39.175C103.069 43.375 102.919 47.725 103.519 51.925C104.044 55.15 108.169 55 110.719 55.225C114.619 55.45 120.694 56.05 124.069 53.875C125.794 52.825 125.194 48.925 125.194 47.275C125.419 36.925 125.569 26.65 125.644 16.375C125.719 12.85 125.719 9.4 125.794 5.95C125.794 4.525 126.019 2.875 125.644 1.525ZM148.092 52.45C144.567 52.975 140.892 52.975 137.367 52.675C136.692 52.6 136.242 52.375 136.092 52.45V50.725C136.092 44.8 136.167 38.95 136.242 33.025C136.317 26.125 136.392 19.15 136.317 12.175C136.317 9.7 136.317 7.15 136.242 4.675C136.242 3.7 136.317 2.2 135.792 1.3C134.967 -0.125001 132.717 1.15 133.542 2.65C133.317 2.275 133.542 2.875 133.542 3.325C133.617 4.225 133.617 5.125 133.692 6.1C133.767 9.025 133.767 12.025 133.767 15.025C133.767 22.75 133.617 30.4 133.542 38.125C133.542 43.075 133.317 48.025 133.467 52.9C133.542 55 135.717 55.075 137.367 55.3C141.042 55.675 145.092 55.525 148.767 55C150.417 54.7 149.742 52.225 148.092 52.45ZM178.155 1.675C170.73 1.15 162.78 1.225 155.43 2.125C153.78 2.275 153.78 4.9 155.43 4.75C158.58 4.375 161.805 4.15 165.03 4V4.075C165.03 4.075 165.63 37.525 165.255 54.175C165.18 55.9 167.805 55.825 167.88 54.1C168.255 37.45 167.655 21.1 167.655 4.075V4C171.18 3.925 174.705 4.075 178.155 4.3C179.805 4.375 179.805 1.825 178.155 1.675ZM199.94 29.275C196.265 24.925 190.79 21.925 189.44 16C188.615 12.325 188.615 8.275 188.915 4.525C191.765 4.15 194.615 3.925 197.465 3.925C199.79 4 201.365 4 201.665 6.625C201.965 9.325 201.515 12.025 201.44 14.725C201.44 16.375 204.065 16.375 204.065 14.725C204.14 10.225 206.165 2.725 200.165 1.6C196.04 0.849995 191.465 1.45 187.34 2.05C186.74 2.2 186.44 2.8 186.365 3.325C186.065 7.15 186.065 11.05 186.59 14.875C187.265 20.125 190.19 23.5 194.015 27.025C196.115 29.05 198.215 31 199.865 33.4C201.44 35.875 201.515 38.65 201.59 41.5V52.6C197.24 52.6 192.965 52.675 188.69 52.675C188.39 49.075 187.715 44.875 188.54 41.5C188.915 39.85 186.365 39.1 185.99 40.75C185.015 44.875 185.915 49.825 186.215 54.025C186.215 54.7 186.74 55.3 187.49 55.3C192.59 55.3 197.765 55.225 202.865 55.225C203.54 55.225 204.14 54.625 204.14 53.875C204.215 49.975 204.215 46.075 204.215 42.175C204.14 37.075 203.39 33.25 199.94 29.275Z" fill="black"/>
</svg>
