<svg width="385" height="57" viewBox="0 0 385 57" fill="none" xmlns="http://www.w3.org/2000/svg">
<path d="M18.225 24.275C16.575 23.15 9.975 23.3 8.625 24.95C7.65 26.3 9.45 28.1 10.5 26.825C10.8 26.45 13.05 26.45 13.65 26.45C14.25 26.375 14.925 26.375 15.6 26.375C16.275 26.375 16.95 26.975 16.575 26.075C17.1 27.275 16.8 29.15 16.8 30.425C16.875 35.675 16.65 40.925 16.35 46.1C16.2 48.125 16.05 50.225 15.675 52.175C15.675 52.475 15.6 52.85 15.525 53.15H15.375C14.7 53.3 14.1 53.375 13.425 53.375C10.875 53.675 8.25 53.75 5.7 53.675C4.875 53.6 3.975 53 3.9 53.675C3.9 53.3 3.825 52.925 3.825 52.625C3.3 43.625 3.375 34.625 3.45 25.625C3.525 20.675 3.675 15.725 4.2 10.775C4.35 9.2 4.575 7.625 4.95 6.125C5.325 4.55 5.175 5.075 6.825 4.925C9.3 4.775 11.7 4.7 14.1 4.775C15.225 4.775 15.75 4.55 16.05 5.6C16.575 7.1 16.275 8.975 16.35 10.55C16.5 12.275 19.125 12.275 18.975 10.55C18.9 8.45 19.5 4.775 17.775 3.2C16.275 1.775 14.1 2.075 12.225 2.15C9.825 2.15 4.275 1.175 2.925 3.95C1.575 6.725 1.575 10.325 1.35 13.325C0.975 18.575 0.9 23.75 0.825 28.925C0.75 37.1 0.6 45.425 1.275 53.6C1.575 57.05 7.125 56.375 9.6 56.3C12 56.225 17.175 56.825 18.075 53.75C18.975 50.525 18.9 46.925 19.125 43.625C19.35 39.2 19.5 34.85 19.425 30.425C19.425 28.625 19.95 25.4 18.225 24.275ZM44.9707 53C39.9457 53.6 34.6957 53.825 29.5957 53.6C29.5957 44.675 29.7457 35.75 29.8207 26.75C33.9457 26.9 38.2207 26.6 42.3457 26.15C43.9957 26 44.0707 23.375 42.3457 23.525C38.2207 24.05 34.0207 24.275 29.8207 24.125C29.8957 17.6 29.9707 11.075 29.9707 4.475C34.9207 4.7 40.0957 4.475 44.9707 3.875C46.6207 3.725 46.6207 1.1 44.9707 1.25C39.8707 1.85 34.4707 2.075 29.2957 1.85C28.5457 1.475 27.3457 1.85 27.3457 2.975C27.4207 20.225 26.9707 37.4 26.9707 54.575C26.9707 55.25 27.4207 55.7 27.9457 55.775C28.1707 56 28.4707 56.225 28.8457 56.225C34.1707 56.45 39.7207 56.225 44.9707 55.625C46.6207 55.475 46.6207 52.85 44.9707 53ZM73.6717 2.675C66.2467 2.15 58.2967 2.225 50.9467 3.125C49.2967 3.275 49.2967 5.9 50.9467 5.75C54.0967 5.375 57.3217 5.15 60.5467 5V5.075C60.5467 5.075 61.1467 38.525 60.7717 55.175C60.6967 56.9 63.3217 56.825 63.3967 55.1C63.7717 38.45 63.1717 22.1 63.1717 5.075V5C66.6967 4.925 70.2217 5.075 73.6717 5.3C75.3217 5.375 75.3217 2.825 73.6717 2.675ZM99.8924 2.675C92.4674 2.15 84.5174 2.225 77.1674 3.125C75.5174 3.275 75.5174 5.9 77.1674 5.75C80.3174 5.375 83.5424 5.15 86.7674 5V5.075C86.7674 5.075 87.3674 38.525 86.9924 55.175C86.9174 56.9 89.5424 56.825 89.6174 55.1C89.9924 38.45 89.3924 22.1 89.3924 5.075V5C92.9174 4.925 96.4424 5.075 99.8924 5.3C101.542 5.375 101.542 2.825 99.8924 2.675ZM108.338 1.85C108.038 0.124995 105.563 0.874999 105.788 2.525C105.713 1.925 105.788 2.9 105.788 3.05V5.075C105.863 7.175 105.863 9.275 105.863 11.45C105.863 17.75 105.788 24.05 105.788 30.425C105.788 36.275 105.713 42.125 105.713 47.975C105.713 49.775 104.813 54.425 106.163 56C107.213 57.275 109.088 55.4 107.963 54.125C108.188 54.35 108.338 54.575 108.338 54.725V54.275C108.338 53.75 108.338 53.15 108.338 52.625V46.55C108.338 40.55 108.413 34.475 108.413 28.475C108.413 22.475 108.488 16.4 108.488 10.4C108.488 7.625 108.788 4.625 108.338 1.85ZM134.708 2.3C134.783 0.574998 132.158 0.574998 132.083 2.3C131.558 17.525 132.233 32.75 132.308 48.05C130.058 41.375 128.258 34.175 126.233 27.575C123.758 19.325 120.533 10.925 118.808 2.45C118.433 0.949998 116.183 1.325 116.183 2.75V29.075C116.183 37.775 115.883 46.55 116.258 55.25C116.333 56.9 118.958 56.9 118.883 55.25C118.508 46.55 118.808 37.775 118.808 29.075V13.025C120.458 18.35 122.333 23.675 123.908 28.925C126.608 37.85 128.858 47.225 132.533 55.85C133.058 57.05 134.933 56.375 134.933 55.175C135.083 37.55 134.108 19.85 134.708 2.3ZM159.875 24.275C158.225 23.15 151.625 23.3 150.275 24.95C149.3 26.3 151.1 28.1 152.15 26.825C152.45 26.45 154.7 26.45 155.3 26.45C155.9 26.375 156.575 26.375 157.25 26.375C157.925 26.375 158.6 26.975 158.225 26.075C158.75 27.275 158.45 29.15 158.45 30.425C158.525 35.675 158.3 40.925 158 46.1C157.85 48.125 157.7 50.225 157.325 52.175C157.325 52.475 157.25 52.85 157.175 53.15H157.025C156.35 53.3 155.75 53.375 155.075 53.375C152.525 53.675 149.9 53.75 147.35 53.675C146.525 53.6 145.625 53 145.55 53.675C145.55 53.3 145.475 52.925 145.475 52.625C144.95 43.625 145.025 34.625 145.1 25.625C145.175 20.675 145.325 15.725 145.85 10.775C146 9.2 146.225 7.625 146.6 6.125C146.975 4.55 146.825 5.075 148.475 4.925C150.95 4.775 153.35 4.7 155.75 4.775C156.875 4.775 157.4 4.55 157.7 5.6C158.225 7.1 157.925 8.975 158 10.55C158.15 12.275 160.775 12.275 160.625 10.55C160.55 8.45 161.15 4.775 159.425 3.2C157.925 1.775 155.75 2.075 153.875 2.15C151.475 2.15 145.925 1.175 144.575 3.95C143.225 6.725 143.225 10.325 143 13.325C142.625 18.575 142.55 23.75 142.475 28.925C142.4 37.1 142.25 45.425 142.925 53.6C143.225 57.05 148.775 56.375 151.25 56.3C153.65 56.225 158.825 56.825 159.725 53.75C160.625 50.525 160.55 46.925 160.775 43.625C161 39.2 161.15 34.85 161.075 30.425C161.075 28.625 161.6 25.4 159.875 24.275ZM227.626 30.275C223.951 25.925 218.476 22.925 217.126 17C216.301 13.325 216.301 9.275 216.601 5.525C219.451 5.15 222.301 4.925 225.151 4.925C227.476 5 229.051 5 229.351 7.625C229.651 10.325 229.201 13.025 229.126 15.725C229.126 17.375 231.751 17.375 231.751 15.725C231.826 11.225 233.851 3.725 227.851 2.6C223.726 1.85 219.151 2.45 215.026 3.05C214.426 3.2 214.126 3.8 214.051 4.325C213.751 8.15 213.751 12.05 214.276 15.875C214.951 21.125 217.876 24.5 221.701 28.025C223.801 30.05 225.901 32 227.551 34.4C229.126 36.875 229.201 39.65 229.276 42.5V53.6C224.926 53.6 220.651 53.675 216.376 53.675C216.076 50.075 215.401 45.875 216.226 42.5C216.601 40.85 214.051 40.1 213.676 41.75C212.701 45.875 213.601 50.825 213.901 55.025C213.901 55.7 214.426 56.3 215.176 56.3C220.276 56.3 225.451 56.225 230.551 56.225C231.226 56.225 231.826 55.625 231.826 54.875C231.901 50.975 231.901 47.075 231.901 43.175C231.826 38.075 231.076 34.25 227.626 30.275ZM260.293 2.675C252.868 2.15 244.918 2.225 237.568 3.125C235.918 3.275 235.918 5.9 237.568 5.75C240.718 5.375 243.943 5.15 247.168 5V5.075C247.168 5.075 247.768 38.525 247.393 55.175C247.318 56.9 249.943 56.825 250.018 55.1C250.393 38.45 249.793 22.1 249.793 5.075V5C253.318 4.925 256.843 5.075 260.293 5.3C261.943 5.375 261.943 2.825 260.293 2.675ZM282.077 54.425C280.502 44.3 278.927 34.025 277.202 23.825C276.302 18.65 275.477 13.55 274.427 8.375C274.052 6.8 273.902 4.475 272.852 3.2C271.727 1.85 270.302 2.525 269.552 3.875C268.202 6.5 268.202 10.4 267.827 13.25C267.152 18.125 266.477 22.925 265.877 27.8C264.677 36.65 263.552 45.65 262.052 54.425C261.827 56.15 264.302 56.825 264.602 55.25C265.352 50.9 265.952 46.475 266.552 42.2H266.627C268.202 41.525 270.452 41.675 272.177 41.6C273.752 41.525 276.002 41.225 277.502 41.75C278.177 46.25 278.927 50.75 279.602 55.25C279.752 56.825 282.377 56.15 282.077 54.425ZM272.177 38.975C270.527 38.975 268.652 38.975 267.002 39.35C268.352 29.225 269.552 19.175 271.052 9.05C271.127 8.3 271.202 7.625 271.427 6.95C271.727 8.525 272.102 10.175 272.402 11.825C273.377 16.85 274.277 21.875 275.102 26.825C275.702 30.875 276.377 34.925 277.052 38.9C275.477 38.75 273.602 38.9 272.177 38.975ZM307.12 54.65C304.795 47.225 301.72 40.025 298.87 32.75C300.82 32.675 303.295 32.525 304.645 31.325C305.77 30.275 305.77 28.25 305.995 26.825C306.37 23.825 306.445 20.825 306.52 17.75C306.67 13.775 307.345 7.775 305.245 4.175C304.42 2.675 301.945 2.9 300.52 2.825C296.995 2.6 293.47 2.525 289.945 2.75C289.045 2.75 288.745 3.5 288.82 4.25C288.745 4.325 288.82 4.475 288.82 4.625C288.82 21.425 288.445 38.75 288.445 55.025C288.445 56.975 290.995 56.975 290.995 55.025C291.07 47.675 291.07 40.175 291.145 32.675C292.795 32.9 294.445 32.9 296.17 32.9C299.02 40.325 302.17 47.75 304.645 55.4C305.095 56.975 307.645 56.3 307.12 54.65ZM291.145 29.975C291.22 21.8 291.22 13.475 291.22 5.3C293.245 5.225 295.27 5.225 297.295 5.3C298.195 5.3 302.77 5.075 303.145 5.675C303.82 6.95 303.745 8.9 303.82 10.325C303.97 12.575 303.97 14.825 303.97 17.075C303.895 21.05 303.82 25.175 302.995 29.075C302.545 31.1 293.32 30.35 291.145 29.975ZM334.267 2.675C326.842 2.15 318.892 2.225 311.542 3.125C309.892 3.275 309.892 5.9 311.542 5.75C314.692 5.375 317.917 5.15 321.142 5V5.075C321.142 5.075 321.742 38.525 321.367 55.175C321.292 56.9 323.917 56.825 323.992 55.1C324.367 38.45 323.767 22.1 323.767 5.075V5C327.292 4.925 330.817 5.075 334.267 5.3C335.917 5.375 335.917 2.825 334.267 2.675ZM357.788 53C352.763 53.6 347.513 53.825 342.413 53.6C342.413 44.675 342.563 35.75 342.638 26.75C346.763 26.9 351.038 26.6 355.163 26.15C356.813 26 356.888 23.375 355.163 23.525C351.038 24.05 346.838 24.275 342.638 24.125C342.713 17.6 342.788 11.075 342.788 4.475C347.738 4.7 352.913 4.475 357.788 3.875C359.438 3.725 359.438 1.1 357.788 1.25C352.688 1.85 347.288 2.075 342.113 1.85C341.363 1.475 340.163 1.85 340.163 2.975C340.238 20.225 339.788 37.4 339.788 54.575C339.788 55.25 340.238 55.7 340.763 55.775C340.988 56 341.288 56.225 341.663 56.225C346.988 56.45 352.538 56.225 357.788 55.625C359.438 55.475 359.438 52.85 357.788 53ZM383.864 9.425C383.714 7.7 383.639 5.225 382.514 3.8C381.539 2.675 379.514 2.675 378.164 2.525C374.639 2.15 371.039 2.75 367.514 2.75C366.764 2.675 366.389 3.2 366.239 3.725C366.239 3.8 366.164 3.875 366.164 4.025C365.564 6.5 365.864 9.5 365.864 12.05C365.789 17.675 365.864 23.3 365.864 28.925C365.864 37.475 366.464 46.25 365.864 54.8C365.864 55.025 365.864 55.25 365.939 55.475C366.164 56.525 367.739 57.125 368.339 55.925C367.964 56.75 368.189 56.3 369.314 56.3H372.014C374.189 56.3 376.289 56.375 378.389 56.3C380.564 56.225 383.414 56.225 383.789 53.6C384.614 47.225 384.464 40.625 384.539 34.25C384.614 26 384.689 17.6 383.864 9.425ZM381.839 36.275C381.764 41.9 381.839 47.675 381.164 53.375V53.45C381.164 53.675 381.089 53.525 381.164 53.375C380.489 53.6 379.664 53.6 378.989 53.675C377.114 53.825 375.164 53.75 373.289 53.675C372.389 53.675 370.289 53.375 368.564 53.525C369.014 45.575 368.489 37.475 368.489 29.6C368.414 24.125 368.414 18.575 368.489 13.1C368.489 10.775 368.264 7.4 368.564 5.3C371.939 5.075 380.039 4.1 380.639 5.9C381.389 8 381.389 10.475 381.539 12.725C382.064 20.525 381.989 28.4 381.839 36.275Z" fill="black"/>
</svg>
