<svg width="161" height="57" viewBox="0 0 161 57" fill="none" xmlns="http://www.w3.org/2000/svg">
<path d="M3.675 1.85C3.375 0.124995 0.9 0.874999 1.125 2.525C1.05 1.925 1.125 2.9 1.125 3.05V5.075C1.2 7.175 1.2 9.275 1.2 11.45C1.2 17.75 1.125 24.05 1.125 30.425C1.125 36.275 1.05 42.125 1.05 47.975C1.05 49.775 0.15 54.425 1.5 56C2.55 57.275 4.425 55.4 3.3 54.125C3.525 54.35 3.675 54.575 3.675 54.725V54.275C3.675 53.75 3.675 53.15 3.675 52.625V46.55C3.675 40.55 3.75 34.475 3.75 28.475C3.75 22.475 3.825 16.4 3.825 10.4C3.825 7.625 4.125 4.625 3.675 1.85ZM33.1951 3.575C33.1951 2 31.0951 1.85 30.5701 3.2C28.3951 8.75 25.0201 13.85 22.3201 19.175C20.2201 13.625 17.4451 7.775 14.0701 3.05C13.1701 1.775 11.0701 2.9 11.6701 4.175C11.2201 6.8 11.4451 9.725 11.4451 12.425C11.3701 18.125 11.3701 23.9 11.3701 29.675C11.2951 38.15 11.4451 46.625 11.4451 55.1C11.5201 56.75 13.9951 56.825 14.1451 55.25C14.1451 55.025 14.0701 54.875 13.9951 54.725C13.9201 46.475 13.9201 38.975 13.9951 31.175C13.9951 25.325 13.9951 19.4 14.0701 13.55C14.0701 11.825 13.9951 9.725 13.9951 7.775C16.8451 12.5 19.1701 17.975 20.9701 23C21.2701 23.9 22.8451 24.425 23.2951 23.3C25.3951 18.5 28.1701 14 30.5701 9.35C30.7201 24.65 30.9451 40.1 30.4951 55.4C30.4201 57.05 33.0451 57.05 33.1201 55.4C33.6451 38.15 33.2701 20.825 33.1951 3.575ZM56.5617 2.975C52.4367 1.7 47.1117 2.6 42.8367 2.9C42.0867 2.9 41.5617 3.425 41.4867 4.175C40.8867 20.825 40.8867 37.1 40.8867 55.1C40.8867 56.75 43.5117 56.75 43.5117 55.1C43.5117 47.975 43.5117 40.85 43.5867 33.725C47.6367 34.625 53.4117 34.175 57.0867 32.45C58.9617 31.55 58.6617 28.775 58.8117 27.05C59.1117 23.225 59.3367 19.325 59.4867 15.425C59.5617 12.35 60.6867 4.175 56.5617 2.975ZM56.8617 13.775C56.8617 19.175 56.4117 24.5 55.8867 29.825C55.7367 31.775 45.4617 31.475 43.8117 31.1C43.7367 31.1 43.6617 31.1 43.5867 31.025C43.6617 22.475 43.8117 13.925 44.1117 5.45C47.1117 5.225 50.1867 5.15 53.1867 5.225C54.9867 5.225 56.1117 5 56.4867 6.875C57.0117 9.125 56.8617 11.525 56.8617 13.775ZM85.1057 7.475C84.9557 5.975 85.0307 3.2 83.3057 2.525C80.8307 1.55 77.2307 2 74.6807 2.075C72.5807 2.075 70.5557 2.225 68.5307 2.375C68.2307 2.45 68.0057 2.525 67.7807 2.675C67.5557 2.825 67.4057 3.05 67.2557 3.35C66.5807 5.225 66.9557 7.925 66.8807 9.875L66.4307 22.7C66.2057 32.15 65.8307 41.675 66.2057 51.05C66.2807 54.125 67.4057 55.4 70.5557 56C74.1557 56.675 80.6057 57.05 83.8307 54.65C85.6307 53.3 85.2557 49.4 85.3307 47.45C85.6307 42.5 85.7057 37.625 85.7807 32.75C85.8557 23.75 86.0057 16.4 85.1057 7.475ZM82.8557 44.975C82.7807 46.85 83.2307 52.325 81.5807 52.925C79.9307 53.45 69.2057 54.875 68.9057 52.475C67.9307 44.075 68.7557 35.225 68.9807 26.75C69.0557 21.2 69.2057 17.3 69.4307 11.75L69.6557 6.35C69.6557 5.975 69.7307 5.45 69.7307 4.925C71.3807 4.85 73.0307 4.7 74.6807 4.7C76.4057 4.625 78.1307 4.625 79.8557 4.775C80.6057 4.775 81.3557 4.85 82.1057 5C83.0057 8 82.8557 11.6 82.9307 14.75C83.3807 25.325 83.3057 34.325 82.8557 44.975ZM110.904 54.65C108.579 47.225 105.504 40.025 102.654 32.75C104.604 32.675 107.079 32.525 108.429 31.325C109.554 30.275 109.554 28.25 109.779 26.825C110.154 23.825 110.229 20.825 110.304 17.75C110.454 13.775 111.129 7.775 109.029 4.175C108.204 2.675 105.729 2.9 104.304 2.825C100.779 2.6 97.2545 2.525 93.7295 2.75C92.8295 2.75 92.5295 3.5 92.6045 4.25C92.5295 4.325 92.6045 4.475 92.6045 4.625C92.6045 21.425 92.2295 38.75 92.2295 55.025C92.2295 56.975 94.7795 56.975 94.7795 55.025C94.8545 47.675 94.8545 40.175 94.9295 32.675C96.5795 32.9 98.2295 32.9 99.9545 32.9C102.804 40.325 105.954 47.75 108.429 55.4C108.879 56.975 111.429 56.3 110.904 54.65ZM94.9295 29.975C95.0045 21.8 95.0045 13.475 95.0045 5.3C97.0295 5.225 99.0545 5.225 101.079 5.3C101.979 5.3 106.554 5.075 106.929 5.675C107.604 6.95 107.529 8.9 107.604 10.325C107.754 12.575 107.754 14.825 107.754 17.075C107.679 21.05 107.604 25.175 106.779 29.075C106.329 31.1 97.1045 30.35 94.9295 29.975ZM138.052 2.675C130.627 2.15 122.677 2.225 115.327 3.125C113.677 3.275 113.677 5.9 115.327 5.75C118.477 5.375 121.702 5.15 124.927 5V5.075C124.927 5.075 125.527 38.525 125.152 55.175C125.077 56.9 127.702 56.825 127.777 55.1C128.152 38.45 127.552 22.1 127.552 5.075V5C131.077 4.925 134.602 5.075 138.052 5.3C139.702 5.375 139.702 2.825 138.052 2.675ZM156.472 30.275C152.797 25.925 147.322 22.925 145.972 17C145.147 13.325 145.147 9.275 145.447 5.525C148.297 5.15 151.147 4.925 153.997 4.925C156.322 5 157.897 5 158.197 7.625C158.497 10.325 158.047 13.025 157.972 15.725C157.972 17.375 160.597 17.375 160.597 15.725C160.672 11.225 162.697 3.725 156.697 2.6C152.572 1.85 147.997 2.45 143.872 3.05C143.272 3.2 142.972 3.8 142.897 4.325C142.597 8.15 142.597 12.05 143.122 15.875C143.797 21.125 146.722 24.5 150.547 28.025C152.647 30.05 154.747 32 156.397 34.4C157.972 36.875 158.047 39.65 158.122 42.5V53.6C153.772 53.6 149.497 53.675 145.222 53.675C144.922 50.075 144.247 45.875 145.072 42.5C145.447 40.85 142.897 40.1 142.522 41.75C141.547 45.875 142.447 50.825 142.747 55.025C142.747 55.7 143.272 56.3 144.022 56.3C149.122 56.3 154.297 56.225 159.397 56.225C160.072 56.225 160.672 55.625 160.672 54.875C160.747 50.975 160.747 47.075 160.747 43.175C160.672 38.075 159.922 34.25 156.472 30.275Z" fill="black"/>
</svg>
