<svg width="202" height="56" viewBox="0 0 202 56" fill="none" xmlns="http://www.w3.org/2000/svg">
<path d="M15.45 52.45C11.925 52.975 8.25 52.975 4.725 52.675C4.05 52.6 3.6 52.375 3.45 52.45V50.725C3.45 44.8 3.525 38.95 3.6 33.025C3.675 26.125 3.75 19.15 3.675 12.175C3.675 9.7 3.675 7.15 3.6 4.675C3.6 3.7 3.675 2.2 3.15 1.3C2.325 -0.125001 0.0750001 1.15 0.9 2.65C0.675 2.275 0.9 2.875 0.9 3.325C0.975 4.225 0.975 5.125 1.05 6.1C1.125 9.025 1.125 12.025 1.125 15.025C1.125 22.75 0.975 30.4 0.9 38.125C0.9 43.075 0.675 48.025 0.825 52.9C0.9 55 3.075 55.075 4.725 55.3C8.4 55.675 12.45 55.525 16.125 55C17.775 54.7 17.1 52.225 15.45 52.45ZM41.9889 53.425C40.4139 43.3 38.8389 33.025 37.1139 22.825C36.2139 17.65 35.3889 12.55 34.3389 7.375C33.9639 5.8 33.8139 3.475 32.7639 2.2C31.6389 0.849995 30.2139 1.525 29.4639 2.875C28.1139 5.5 28.1139 9.4 27.7389 12.25C27.0639 17.125 26.3889 21.925 25.7889 26.8C24.5889 35.65 23.4639 44.65 21.9639 53.425C21.7389 55.15 24.2139 55.825 24.5139 54.25C25.2639 49.9 25.8639 45.475 26.4639 41.2H26.5389C28.1139 40.525 30.3639 40.675 32.0889 40.6C33.6639 40.525 35.9139 40.225 37.4139 40.75C38.0889 45.25 38.8389 49.75 39.5139 54.25C39.6639 55.825 42.2889 55.15 41.9889 53.425ZM32.0889 37.975C30.4389 37.975 28.5639 37.975 26.9139 38.35C28.2639 28.225 29.4639 18.175 30.9639 8.05C31.0389 7.3 31.1139 6.625 31.3389 5.95C31.6389 7.525 32.0139 9.175 32.3139 10.825C33.2889 15.85 34.1889 20.875 35.0139 25.825C35.6139 29.875 36.2889 33.925 36.9639 37.9C35.3889 37.75 33.5139 37.9 32.0889 37.975ZM67.0324 1.3C67.1074 -0.425002 64.4824 -0.425002 64.4074 1.3C63.8824 16.525 64.5574 31.75 64.6324 47.05C62.3824 40.375 60.5824 33.175 58.5574 26.575C56.0824 18.325 52.8574 9.925 51.1324 1.45C50.7574 -0.050002 48.5074 0.324998 48.5074 1.75V28.075C48.5074 36.775 48.2074 45.55 48.5824 54.25C48.6574 55.9 51.2824 55.9 51.2074 54.25C50.8324 45.55 51.1324 36.775 51.1324 28.075V12.025C52.7824 17.35 54.6574 22.675 56.2324 27.925C58.9324 36.85 61.1824 46.225 64.8574 54.85C65.3824 56.05 67.2574 55.375 67.2574 54.175C67.4074 36.55 66.4324 18.85 67.0324 1.3ZM92.1996 23.275C90.5496 22.15 83.9496 22.3 82.5996 23.95C81.6246 25.3 83.4246 27.1 84.4746 25.825C84.7746 25.45 87.0246 25.45 87.6246 25.45C88.2246 25.375 88.8996 25.375 89.5746 25.375C90.2496 25.375 90.9246 25.975 90.5496 25.075C91.0746 26.275 90.7746 28.15 90.7746 29.425C90.8496 34.675 90.6246 39.925 90.3246 45.1C90.1746 47.125 90.0246 49.225 89.6496 51.175C89.6496 51.475 89.5746 51.85 89.4996 52.15H89.3496C88.6746 52.3 88.0746 52.375 87.3996 52.375C84.8496 52.675 82.2246 52.75 79.6746 52.675C78.8496 52.6 77.9496 52 77.8746 52.675C77.8746 52.3 77.7996 51.925 77.7996 51.625C77.2746 42.625 77.3496 33.625 77.4246 24.625C77.4996 19.675 77.6496 14.725 78.1746 9.775C78.3246 8.2 78.5496 6.625 78.9246 5.125C79.2996 3.55 79.1496 4.075 80.7996 3.925C83.2746 3.775 85.6746 3.7 88.0746 3.775C89.1996 3.775 89.7246 3.55 90.0246 4.6C90.5496 6.1 90.2496 7.975 90.3246 9.55C90.4746 11.275 93.0996 11.275 92.9496 9.55C92.8746 7.45 93.4746 3.775 91.7496 2.2C90.2496 0.774996 88.0746 1.075 86.1996 1.15C83.7996 1.15 78.2496 0.175 76.8996 2.95C75.5496 5.725 75.5496 9.325 75.3246 12.325C74.9496 17.575 74.8746 22.75 74.7996 27.925C74.7246 36.1 74.5746 44.425 75.2496 52.6C75.5496 56.05 81.0996 55.375 83.5746 55.3C85.9746 55.225 91.1496 55.825 92.0496 52.75C92.9496 49.525 92.8746 45.925 93.0996 42.625C93.3246 38.2 93.4746 33.85 93.3996 29.425C93.3996 27.625 93.9246 24.4 92.1996 23.275ZM123.154 1.525C122.779 -0.125001 120.229 0.549999 120.679 2.2C120.529 1.675 120.679 3.475 120.679 3.925C120.679 5.65 120.679 7.3 120.604 9.025C120.604 14.125 120.529 19.15 120.454 24.175C120.379 33.25 120.304 42.25 120.004 51.325C120.004 51.55 120.004 51.775 119.929 51.85C119.179 52.225 118.129 52.3 117.379 52.375C114.604 52.75 111.679 52.75 108.904 52.6C107.704 52.525 106.429 52.45 105.229 52.225C104.779 52.15 103.579 51.55 103.804 52.075C103.279 50.8 103.354 49.075 103.279 47.725C102.754 35.575 103.429 23.275 103.654 11.125C103.729 8.275 103.804 5.35 103.804 2.5C103.804 0.849995 101.179 0.849995 101.179 2.5C101.179 14.725 100.579 26.95 100.579 39.175C100.579 43.375 100.429 47.725 101.029 51.925C101.554 55.15 105.679 55 108.229 55.225C112.129 55.45 118.204 56.05 121.579 53.875C123.304 52.825 122.704 48.925 122.704 47.275C122.929 36.925 123.079 26.65 123.154 16.375C123.229 12.85 123.229 9.4 123.304 5.95C123.304 4.525 123.529 2.875 123.154 1.525ZM149.801 53.425C148.226 43.3 146.651 33.025 144.926 22.825C144.026 17.65 143.201 12.55 142.151 7.375C141.776 5.8 141.626 3.475 140.576 2.2C139.451 0.849995 138.026 1.525 137.276 2.875C135.926 5.5 135.926 9.4 135.551 12.25C134.876 17.125 134.201 21.925 133.601 26.8C132.401 35.65 131.276 44.65 129.776 53.425C129.551 55.15 132.026 55.825 132.326 54.25C133.076 49.9 133.676 45.475 134.276 41.2H134.351C135.926 40.525 138.176 40.675 139.901 40.6C141.476 40.525 143.726 40.225 145.226 40.75C145.901 45.25 146.651 49.75 147.326 54.25C147.476 55.825 150.101 55.15 149.801 53.425ZM139.901 37.975C138.251 37.975 136.376 37.975 134.726 38.35C136.076 28.225 137.276 18.175 138.776 8.05C138.851 7.3 138.926 6.625 139.151 5.95C139.451 7.525 139.826 9.175 140.126 10.825C141.101 15.85 142.001 20.875 142.826 25.825C143.426 29.875 144.101 33.925 144.776 37.9C143.201 37.75 141.326 37.9 139.901 37.975ZM173.645 23.275C171.995 22.15 165.395 22.3 164.045 23.95C163.07 25.3 164.87 27.1 165.92 25.825C166.22 25.45 168.47 25.45 169.07 25.45C169.67 25.375 170.345 25.375 171.02 25.375C171.695 25.375 172.37 25.975 171.995 25.075C172.52 26.275 172.22 28.15 172.22 29.425C172.295 34.675 172.07 39.925 171.77 45.1C171.62 47.125 171.47 49.225 171.095 51.175C171.095 51.475 171.02 51.85 170.945 52.15H170.795C170.12 52.3 169.52 52.375 168.845 52.375C166.295 52.675 163.67 52.75 161.12 52.675C160.295 52.6 159.395 52 159.32 52.675C159.32 52.3 159.245 51.925 159.245 51.625C158.72 42.625 158.795 33.625 158.87 24.625C158.945 19.675 159.095 14.725 159.62 9.775C159.77 8.2 159.995 6.625 160.37 5.125C160.745 3.55 160.595 4.075 162.245 3.925C164.72 3.775 167.12 3.7 169.52 3.775C170.645 3.775 171.17 3.55 171.47 4.6C171.995 6.1 171.695 7.975 171.77 9.55C171.92 11.275 174.545 11.275 174.395 9.55C174.32 7.45 174.92 3.775 173.195 2.2C171.695 0.774996 169.52 1.075 167.645 1.15C165.245 1.15 159.695 0.175 158.345 2.95C156.995 5.725 156.995 9.325 156.77 12.325C156.395 17.575 156.32 22.75 156.245 27.925C156.17 36.1 156.02 44.425 156.695 52.6C156.995 56.05 162.545 55.375 165.02 55.3C167.42 55.225 172.595 55.825 173.495 52.75C174.395 49.525 174.32 45.925 174.545 42.625C174.77 38.2 174.92 33.85 174.845 29.425C174.845 27.625 175.37 24.4 173.645 23.275ZM200.024 52C194.999 52.6 189.749 52.825 184.649 52.6C184.649 43.675 184.799 34.75 184.874 25.75C188.999 25.9 193.274 25.6 197.399 25.15C199.049 25 199.124 22.375 197.399 22.525C193.274 23.05 189.074 23.275 184.874 23.125C184.949 16.6 185.024 10.075 185.024 3.475C189.974 3.7 195.149 3.475 200.024 2.875C201.674 2.725 201.674 0.099996 200.024 0.249999C194.924 0.849995 189.524 1.075 184.349 0.849995C183.599 0.474996 182.399 0.849995 182.399 1.975C182.474 19.225 182.024 36.4 182.024 53.575C182.024 54.25 182.474 54.7 182.999 54.775C183.224 55 183.524 55.225 183.899 55.225C189.224 55.45 194.774 55.225 200.024 54.625C201.674 54.475 201.674 51.85 200.024 52Z" fill="black"/>
</svg>
