<svg width="101" height="57" viewBox="0 0 101 57" fill="none" xmlns="http://www.w3.org/2000/svg">
<path d="M15.45 53.45C11.925 53.975 8.25 53.975 4.725 53.675C4.05 53.6 3.6 53.375 3.45 53.45V51.725C3.45 45.8 3.525 39.95 3.6 34.025C3.675 27.125 3.75 20.15 3.675 13.175C3.675 10.7 3.675 8.15 3.6 5.675C3.6 4.7 3.675 3.2 3.15 2.3C2.325 0.874999 0.0750001 2.15 0.9 3.65C0.675 3.275 0.9 3.875 0.9 4.325C0.975 5.225 0.975 6.125 1.05 7.1C1.125 10.025 1.125 13.025 1.125 16.025C1.125 23.75 0.975 31.4 0.9 39.125C0.9 44.075 0.675 49.025 0.825 53.9C0.9 56 3.075 56.075 4.725 56.3C8.4 56.675 12.45 56.525 16.125 56C17.775 55.7 17.1 53.225 15.45 53.45ZM26.0139 1.85C25.7139 0.124995 23.2389 0.874999 23.4639 2.525C23.3889 1.925 23.4639 2.9 23.4639 3.05V5.075C23.5389 7.175 23.5389 9.275 23.5389 11.45C23.5389 17.75 23.4639 24.05 23.4639 30.425C23.4639 36.275 23.3889 42.125 23.3889 47.975C23.3889 49.775 22.4889 54.425 23.8389 56C24.8889 57.275 26.7639 55.4 25.6389 54.125C25.8639 54.35 26.0139 54.575 26.0139 54.725V54.275C26.0139 53.75 26.0139 53.15 26.0139 52.625V46.55C26.0139 40.55 26.0889 34.475 26.0889 28.475C26.0889 22.475 26.1639 16.4 26.1639 10.4C26.1639 7.625 26.4639 4.625 26.0139 1.85ZM46.609 30.275C42.934 25.925 37.459 22.925 36.109 17C35.284 13.325 35.284 9.275 35.584 5.525C38.434 5.15 41.284 4.925 44.134 4.925C46.459 5 48.034 5 48.334 7.625C48.634 10.325 48.184 13.025 48.109 15.725C48.109 17.375 50.734 17.375 50.734 15.725C50.809 11.225 52.834 3.725 46.834 2.6C42.709 1.85 38.134 2.45 34.009 3.05C33.409 3.2 33.109 3.8 33.034 4.325C32.734 8.15 32.734 12.05 33.259 15.875C33.934 21.125 36.859 24.5 40.684 28.025C42.784 30.05 44.884 32 46.534 34.4C48.109 36.875 48.184 39.65 48.259 42.5V53.6C43.909 53.6 39.634 53.675 35.359 53.675C35.059 50.075 34.384 45.875 35.209 42.5C35.584 40.85 33.034 40.1 32.659 41.75C31.684 45.875 32.584 50.825 32.884 55.025C32.884 55.7 33.409 56.3 34.159 56.3C39.259 56.3 44.434 56.225 49.534 56.225C50.209 56.225 50.809 55.625 50.809 54.875C50.884 50.975 50.884 47.075 50.884 43.175C50.809 38.075 50.059 34.25 46.609 30.275ZM77.7732 2.675C70.3482 2.15 62.3982 2.225 55.0482 3.125C53.3982 3.275 53.3982 5.9 55.0482 5.75C58.1982 5.375 61.4232 5.15 64.6482 5V5.075C64.6482 5.075 65.2482 38.525 64.8732 55.175C64.7982 56.9 67.4232 56.825 67.4982 55.1C67.8732 38.45 67.2732 22.1 67.2732 5.075V5C70.7982 4.925 74.3232 5.075 77.7732 5.3C79.4232 5.375 79.4232 2.825 77.7732 2.675ZM96.1939 30.275C92.5189 25.925 87.0439 22.925 85.6939 17C84.8689 13.325 84.8689 9.275 85.1689 5.525C88.0189 5.15 90.8689 4.925 93.7189 4.925C96.0439 5 97.6189 5 97.9189 7.625C98.2189 10.325 97.7689 13.025 97.6939 15.725C97.6939 17.375 100.319 17.375 100.319 15.725C100.394 11.225 102.419 3.725 96.4189 2.6C92.2939 1.85 87.7189 2.45 83.5939 3.05C82.9939 3.2 82.6939 3.8 82.6189 4.325C82.3189 8.15 82.3189 12.05 82.8439 15.875C83.5189 21.125 86.4439 24.5 90.2689 28.025C92.3689 30.05 94.4689 32 96.1189 34.4C97.6939 36.875 97.7689 39.65 97.8439 42.5V53.6C93.4939 53.6 89.2189 53.675 84.9439 53.675C84.6439 50.075 83.9689 45.875 84.7939 42.5C85.1689 40.85 82.6189 40.1 82.2439 41.75C81.2689 45.875 82.1689 50.825 82.4689 55.025C82.4689 55.7 82.9939 56.3 83.7439 56.3C88.8439 56.3 94.0189 56.225 99.1189 56.225C99.7939 56.225 100.394 55.625 100.394 54.875C100.469 50.975 100.469 47.075 100.469 43.175C100.394 38.075 99.6439 34.25 96.1939 30.275Z" fill="black"/>
</svg>
