<svg width="98" height="57" viewBox="0 0 98 57" fill="none" xmlns="http://www.w3.org/2000/svg">
<path d="M22.65 3.575C22.65 2 20.55 1.85 20.025 3.2C17.85 8.75 14.475 13.85 11.775 19.175C9.675 13.625 6.9 7.775 3.525 3.05C2.625 1.775 0.525 2.9 1.125 4.175C0.675 6.8 0.9 9.725 0.9 12.425C0.825 18.125 0.825 23.9 0.825 29.675C0.75 38.15 0.9 46.625 0.9 55.1C0.975 56.75 3.45 56.825 3.6 55.25C3.6 55.025 3.525 54.875 3.45 54.725C3.375 46.475 3.375 38.975 3.45 31.175C3.45 25.325 3.45 19.4 3.525 13.55C3.525 11.825 3.45 9.725 3.45 7.775C6.3 12.5 8.625 17.975 10.425 23C10.725 23.9 12.3 24.425 12.75 23.3C14.85 18.5 17.625 14 20.025 9.35C20.175 24.65 20.4 40.1 19.95 55.4C19.875 57.05 22.5 57.05 22.575 55.4C23.1 38.15 22.725 20.825 22.65 3.575ZM33.1916 1.85C32.8916 0.124995 30.4166 0.874999 30.6416 2.525C30.5666 1.925 30.6416 2.9 30.6416 3.05V5.075C30.7166 7.175 30.7166 9.275 30.7166 11.45C30.7166 17.75 30.6416 24.05 30.6416 30.425C30.6416 36.275 30.5666 42.125 30.5666 47.975C30.5666 49.775 29.6666 54.425 31.0166 56C32.0666 57.275 33.9416 55.4 32.8166 54.125C33.0416 54.35 33.1916 54.575 33.1916 54.725V54.275C33.1916 53.75 33.1916 53.15 33.1916 52.625V46.55C33.1916 40.55 33.2666 34.475 33.2666 28.475C33.2666 22.475 33.3416 16.4 33.3416 10.4C33.3416 7.625 33.6416 4.625 33.1916 1.85ZM62.7117 3.575C62.7117 2 60.6117 1.85 60.0867 3.2C57.9117 8.75 54.5367 13.85 51.8367 19.175C49.7367 13.625 46.9617 7.775 43.5867 3.05C42.6867 1.775 40.5867 2.9 41.1867 4.175C40.7367 6.8 40.9617 9.725 40.9617 12.425C40.8867 18.125 40.8867 23.9 40.8867 29.675C40.8117 38.15 40.9617 46.625 40.9617 55.1C41.0367 56.75 43.5117 56.825 43.6617 55.25C43.6617 55.025 43.5867 54.875 43.5117 54.725C43.4367 46.475 43.4367 38.975 43.5117 31.175C43.5117 25.325 43.5117 19.4 43.5867 13.55C43.5867 11.825 43.5117 9.725 43.5117 7.775C46.3617 12.5 48.6867 17.975 50.4867 23C50.7867 23.9 52.3617 24.425 52.8117 23.3C54.9117 18.5 57.6867 14 60.0867 9.35C60.2367 24.65 60.4617 40.1 60.0117 55.4C59.9367 57.05 62.5617 57.05 62.6367 55.4C63.1617 38.15 62.7867 20.825 62.7117 3.575ZM73.3283 1.85C73.0283 0.124995 70.5533 0.874999 70.7783 2.525C70.7033 1.925 70.7783 2.9 70.7783 3.05V5.075C70.8533 7.175 70.8533 9.275 70.8533 11.45C70.8533 17.75 70.7783 24.05 70.7783 30.425C70.7783 36.275 70.7033 42.125 70.7033 47.975C70.7033 49.775 69.8033 54.425 71.1533 56C72.2033 57.275 74.0783 55.4 72.9533 54.125C73.1783 54.35 73.3283 54.575 73.3283 54.725V54.275C73.3283 53.75 73.3283 53.15 73.3283 52.625V46.55C73.3283 40.55 73.4033 34.475 73.4033 28.475C73.4033 22.475 73.4783 16.4 73.4783 10.4C73.4783 7.625 73.7783 4.625 73.3283 1.85ZM95.7984 53.225C91.8234 53.075 87.7734 53.45 83.7984 53.375C83.5734 53.375 83.4234 53.375 83.2734 53.375V53.225C83.1234 52.4 83.0484 51.5 82.9734 50.675C82.5234 44.375 82.5234 37.925 82.5984 31.625C82.5984 24.575 82.7484 17.6 83.2734 10.625C83.4234 8.6 83.4984 6.65 84.0234 4.7V4.625C84.6984 4.625 85.3734 4.7 85.9734 4.7C88.8984 4.775 91.7484 4.625 94.6734 4.55C96.3984 4.55 96.3984 1.925 94.6734 1.925C91.4484 2 88.2984 2.15 85.0734 2.075C83.9484 2.075 82.7484 1.775 81.9984 2.825C81.0234 4.25 81.0234 6.425 80.8734 8C79.9734 15.8 79.9734 23.75 79.9734 31.625C79.8984 38.45 79.8234 45.5 80.4984 52.325C80.6484 53.675 80.6484 55.4 82.2234 55.85C86.4234 56.975 91.5234 55.7 95.7984 55.85C97.5234 55.925 97.5234 53.3 95.7984 53.225ZM83.6484 4.625C83.4984 4.625 83.4234 4.625 83.3484 4.625H83.6484Z" fill="black"/>
</svg>
