<svg width="121" height="56" viewBox="0 0 121 56" fill="none" xmlns="http://www.w3.org/2000/svg">
<path d="M15.15 29.275C11.475 24.925 6 21.925 4.65 16C3.825 12.325 3.825 8.275 4.125 4.525C6.975 4.15 9.825 3.925 12.675 3.925C15 4 16.575 4 16.875 6.625C17.175 9.325 16.725 12.025 16.65 14.725C16.65 16.375 19.275 16.375 19.275 14.725C19.35 10.225 21.375 2.725 15.375 1.6C11.25 0.849995 6.675 1.45 2.55 2.05C1.95 2.2 1.65 2.8 1.575 3.325C1.275 7.15 1.275 11.05 1.8 14.875C2.475 20.125 5.4 23.5 9.225 27.025C11.325 29.05 13.425 31 15.075 33.4C16.65 35.875 16.725 38.65 16.8 41.5V52.6C12.45 52.6 8.175 52.675 3.9 52.675C3.6 49.075 2.925 44.875 3.75 41.5C4.125 39.85 1.575 39.1 1.2 40.75C0.225 44.875 1.125 49.825 1.425 54.025C1.425 54.7 1.95 55.3 2.7 55.3C7.8 55.3 12.975 55.225 18.075 55.225C18.75 55.225 19.35 54.625 19.35 53.875C19.425 49.975 19.425 46.075 19.425 42.175C19.35 37.075 18.6 33.25 15.15 29.275ZM47.8172 1.675C40.3922 1.15 32.4422 1.225 25.0922 2.125C23.4422 2.275 23.4422 4.9 25.0922 4.75C28.2422 4.375 31.4672 4.15 34.6922 4V4.075C34.6922 4.075 35.2922 37.525 34.9172 54.175C34.8422 55.9 37.4672 55.825 37.5422 54.1C37.9172 37.45 37.3172 21.1 37.3172 4.075V4C40.8422 3.925 44.3672 4.075 47.8172 4.3C49.4672 4.375 49.4672 1.825 47.8172 1.675ZM69.6012 53.425C68.0262 43.3 66.4512 33.025 64.7262 22.825C63.8262 17.65 63.0012 12.55 61.9512 7.375C61.5762 5.8 61.4262 3.475 60.3762 2.2C59.2512 0.849995 57.8262 1.525 57.0762 2.875C55.7262 5.5 55.7262 9.4 55.3512 12.25C54.6762 17.125 54.0012 21.925 53.4012 26.8C52.2012 35.65 51.0762 44.65 49.5762 53.425C49.3512 55.15 51.8262 55.825 52.1262 54.25C52.8762 49.9 53.4762 45.475 54.0762 41.2H54.1512C55.7262 40.525 57.9762 40.675 59.7012 40.6C61.2762 40.525 63.5262 40.225 65.0262 40.75C65.7012 45.25 66.4512 49.75 67.1262 54.25C67.2762 55.825 69.9012 55.15 69.6012 53.425ZM59.7012 37.975C58.0512 37.975 56.1762 37.975 54.5262 38.35C55.8762 28.225 57.0762 18.175 58.5762 8.05C58.6512 7.3 58.7262 6.625 58.9512 5.95C59.2512 7.525 59.6262 9.175 59.9262 10.825C60.9012 15.85 61.8012 20.875 62.6262 25.825C63.2262 29.875 63.9012 33.925 64.5762 37.9C63.0012 37.75 61.1262 37.9 59.7012 37.975ZM90.7447 52.225C86.7697 52.075 82.7197 52.45 78.7447 52.375C78.5197 52.375 78.3697 52.375 78.2197 52.375V52.225C78.0697 51.4 77.9947 50.5 77.9197 49.675C77.4697 43.375 77.4697 36.925 77.5447 30.625C77.5447 23.575 77.6947 16.6 78.2197 9.625C78.3697 7.6 78.4447 5.65 78.9697 3.7V3.625C79.6447 3.625 80.3197 3.7 80.9197 3.7C83.8447 3.775 86.6947 3.625 89.6197 3.55C91.3447 3.55 91.3447 0.924999 89.6197 0.924999C86.3947 0.999998 83.2447 1.15 80.0197 1.075C78.8947 1.075 77.6947 0.774996 76.9447 1.825C75.9697 3.25 75.9697 5.425 75.8197 7C74.9197 14.8 74.9197 22.75 74.9197 30.625C74.8447 37.45 74.7697 44.5 75.4447 51.325C75.5947 52.675 75.5947 54.4 77.1697 54.85C81.3697 55.975 86.4697 54.7 90.7447 54.85C92.4697 54.925 92.4697 52.3 90.7447 52.225ZM78.5947 3.625C78.4447 3.625 78.3697 3.625 78.2947 3.625H78.5947ZM120.432 53.425C120.732 53.65 120.057 52.525 119.907 52.15C119.382 51.025 118.932 49.825 118.407 48.625C116.982 44.95 115.482 41.275 114.057 37.525C111.732 31.6 109.182 27.025 107.232 20.95C107.682 19.9 108.207 18.85 108.732 17.875C111.132 13.075 113.382 8.125 116.082 3.475C116.157 3.4 116.232 3.325 116.307 3.175C116.382 3.1 116.382 2.95 116.457 2.875C117.207 1.375 115.107 0.099996 114.207 1.525C111.282 6.325 108.957 11.5 106.407 16.525C104.682 20.05 103.107 23.95 101.082 27.475C101.157 19.075 101.157 10.75 101.157 2.5C101.157 1.225 98.5318 1.225 98.5318 2.5C98.5318 2.5 98.3818 36.925 98.3818 54.1C98.3818 55.825 101.007 55.825 101.007 54.1C101.007 46.75 101.082 39.325 101.082 31.9C101.307 31.825 101.532 31.675 101.757 31.45C103.257 29.275 104.457 26.8 105.657 24.325C107.532 29.35 109.707 33.625 111.732 38.875C113.232 42.7 114.732 46.45 116.307 50.275C116.832 51.625 117.432 54.25 118.557 55.3C119.832 56.35 121.707 54.55 120.432 53.425Z" fill="black"/>
</svg>
