<svg width="165" height="57" viewBox="0 0 165 57" fill="none" xmlns="http://www.w3.org/2000/svg">
<path d="M15.15 30.275C11.475 25.925 6 22.925 4.65 17C3.825 13.325 3.825 9.275 4.125 5.525C6.975 5.15 9.825 4.925 12.675 4.925C15 5 16.575 5 16.875 7.625C17.175 10.325 16.725 13.025 16.65 15.725C16.65 17.375 19.275 17.375 19.275 15.725C19.35 11.225 21.375 3.725 15.375 2.6C11.25 1.85 6.675 2.45 2.55 3.05C1.95 3.2 1.65 3.8 1.575 4.325C1.275 8.15 1.275 12.05 1.8 15.875C2.475 21.125 5.4 24.5 9.225 28.025C11.325 30.05 13.425 32 15.075 34.4C16.65 36.875 16.725 39.65 16.8 42.5V53.6C12.45 53.6 8.175 53.675 3.9 53.675C3.6 50.075 2.925 45.875 3.75 42.5C4.125 40.85 1.575 40.1 1.2 41.75C0.225 45.875 1.125 50.825 1.425 55.025C1.425 55.7 1.95 56.3 2.7 56.3C7.8 56.3 12.975 56.225 18.075 56.225C18.75 56.225 19.35 55.625 19.35 54.875C19.425 50.975 19.425 47.075 19.425 43.175C19.35 38.075 18.6 34.25 15.15 30.275ZM49.5422 2.675C42.1172 2.15 34.1672 2.225 26.8172 3.125C25.1672 3.275 25.1672 5.9 26.8172 5.75C29.9672 5.375 33.1922 5.15 36.4172 5V5.075C36.4172 5.075 37.0172 38.525 36.6422 55.175C36.5672 56.9 39.1922 56.825 39.2672 55.1C39.6422 38.45 39.0422 22.1 39.0422 5.075V5C42.5672 4.925 46.0922 5.075 49.5422 5.3C51.1922 5.375 51.1922 2.825 49.5422 2.675ZM75.6018 54.65C73.2768 47.225 70.2018 40.025 67.3518 32.75C69.3018 32.675 71.7768 32.525 73.1268 31.325C74.2518 30.275 74.2518 28.25 74.4768 26.825C74.8518 23.825 74.9268 20.825 75.0018 17.75C75.1518 13.775 75.8268 7.775 73.7268 4.175C72.9018 2.675 70.4268 2.9 69.0018 2.825C65.4768 2.6 61.9518 2.525 58.4268 2.75C57.5268 2.75 57.2268 3.5 57.3018 4.25C57.2268 4.325 57.3018 4.475 57.3018 4.625C57.3018 21.425 56.9268 38.75 56.9268 55.025C56.9268 56.975 59.4768 56.975 59.4768 55.025C59.5518 47.675 59.5518 40.175 59.6268 32.675C61.2768 32.9 62.9268 32.9 64.6518 32.9C67.5018 40.325 70.6518 47.75 73.1268 55.4C73.5768 56.975 76.1268 56.3 75.6018 54.65ZM59.6268 29.975C59.7018 21.8 59.7018 13.475 59.7018 5.3C61.7268 5.225 63.7518 5.225 65.7768 5.3C66.6768 5.3 71.2518 5.075 71.6268 5.675C72.3018 6.95 72.2268 8.9 72.3018 10.325C72.4518 12.575 72.4518 14.825 72.4518 17.075C72.3768 21.05 72.3018 25.175 71.4768 29.075C71.0268 31.1 61.8018 30.35 59.6268 29.975ZM84.9738 1.85C84.6738 0.124995 82.1988 0.874999 82.4238 2.525C82.3488 1.925 82.4238 2.9 82.4238 3.05V5.075C82.4988 7.175 82.4988 9.275 82.4988 11.45C82.4988 17.75 82.4238 24.05 82.4238 30.425C82.4238 36.275 82.3488 42.125 82.3488 47.975C82.3488 49.775 81.4488 54.425 82.7988 56C83.8488 57.275 85.7238 55.4 84.5988 54.125C84.8238 54.35 84.9738 54.575 84.9738 54.725V54.275C84.9738 53.75 84.9738 53.15 84.9738 52.625V46.55C84.9738 40.55 85.0488 34.475 85.0488 28.475C85.0488 22.475 85.1238 16.4 85.1238 10.4C85.1238 7.625 85.4238 4.625 84.9738 1.85ZM111.344 2.3C111.419 0.574998 108.794 0.574998 108.719 2.3C108.194 17.525 108.869 32.75 108.944 48.05C106.694 41.375 104.894 34.175 102.869 27.575C100.394 19.325 97.1689 10.925 95.4439 2.45C95.0689 0.949998 92.8189 1.325 92.8189 2.75V29.075C92.8189 37.775 92.5189 46.55 92.8939 55.25C92.9689 56.9 95.5939 56.9 95.5189 55.25C95.1439 46.55 95.4439 37.775 95.4439 29.075V13.025C97.0939 18.35 98.9689 23.675 100.544 28.925C103.244 37.85 105.494 47.225 109.169 55.85C109.694 57.05 111.569 56.375 111.569 55.175C111.719 37.55 110.744 19.85 111.344 2.3ZM136.511 24.275C134.861 23.15 128.261 23.3 126.911 24.95C125.936 26.3 127.736 28.1 128.786 26.825C129.086 26.45 131.336 26.45 131.936 26.45C132.536 26.375 133.211 26.375 133.886 26.375C134.561 26.375 135.236 26.975 134.861 26.075C135.386 27.275 135.086 29.15 135.086 30.425C135.161 35.675 134.936 40.925 134.636 46.1C134.486 48.125 134.336 50.225 133.961 52.175C133.961 52.475 133.886 52.85 133.811 53.15H133.661C132.986 53.3 132.386 53.375 131.711 53.375C129.161 53.675 126.536 53.75 123.986 53.675C123.161 53.6 122.261 53 122.186 53.675C122.186 53.3 122.111 52.925 122.111 52.625C121.586 43.625 121.661 34.625 121.736 25.625C121.811 20.675 121.961 15.725 122.486 10.775C122.636 9.2 122.861 7.625 123.236 6.125C123.611 4.55 123.461 5.075 125.111 4.925C127.586 4.775 129.986 4.7 132.386 4.775C133.511 4.775 134.036 4.55 134.336 5.6C134.861 7.1 134.561 8.975 134.636 10.55C134.786 12.275 137.411 12.275 137.261 10.55C137.186 8.45 137.786 4.775 136.061 3.2C134.561 1.775 132.386 2.075 130.511 2.15C128.111 2.15 122.561 1.175 121.211 3.95C119.861 6.725 119.861 10.325 119.636 13.325C119.261 18.575 119.186 23.75 119.111 28.925C119.036 37.1 118.886 45.425 119.561 53.6C119.861 57.05 125.411 56.375 127.886 56.3C130.286 56.225 135.461 56.825 136.361 53.75C137.261 50.525 137.186 46.925 137.411 43.625C137.636 39.2 137.786 34.85 137.711 30.425C137.711 28.625 138.236 25.4 136.511 24.275ZM159.657 30.275C155.982 25.925 150.507 22.925 149.157 17C148.332 13.325 148.332 9.275 148.632 5.525C151.482 5.15 154.332 4.925 157.182 4.925C159.507 5 161.082 5 161.382 7.625C161.682 10.325 161.232 13.025 161.157 15.725C161.157 17.375 163.782 17.375 163.782 15.725C163.857 11.225 165.882 3.725 159.882 2.6C155.757 1.85 151.182 2.45 147.057 3.05C146.457 3.2 146.157 3.8 146.082 4.325C145.782 8.15 145.782 12.05 146.307 15.875C146.982 21.125 149.907 24.5 153.732 28.025C155.832 30.05 157.932 32 159.582 34.4C161.157 36.875 161.232 39.65 161.307 42.5V53.6C156.957 53.6 152.682 53.675 148.407 53.675C148.107 50.075 147.432 45.875 148.257 42.5C148.632 40.85 146.082 40.1 145.707 41.75C144.732 45.875 145.632 50.825 145.932 55.025C145.932 55.7 146.457 56.3 147.207 56.3C152.307 56.3 157.482 56.225 162.582 56.225C163.257 56.225 163.857 55.625 163.857 54.875C163.932 50.975 163.932 47.075 163.932 43.175C163.857 38.075 163.107 34.25 159.657 30.275Z" fill="black"/>
</svg>
