<svg width="149" height="56" viewBox="0 0 149 56" fill="none" xmlns="http://www.w3.org/2000/svg">
<path d="M15.15 29.275C11.475 24.925 6 21.925 4.65 16C3.825 12.325 3.825 8.275 4.125 4.525C6.975 4.15 9.825 3.925 12.675 3.925C15 4 16.575 4 16.875 6.625C17.175 9.325 16.725 12.025 16.65 14.725C16.65 16.375 19.275 16.375 19.275 14.725C19.35 10.225 21.375 2.725 15.375 1.6C11.25 0.849995 6.675 1.45 2.55 2.05C1.95 2.2 1.65 2.8 1.575 3.325C1.275 7.15 1.275 11.05 1.8 14.875C2.475 20.125 5.4 23.5 9.225 27.025C11.325 29.05 13.425 31 15.075 33.4C16.65 35.875 16.725 38.65 16.8 41.5V52.6C12.45 52.6 8.175 52.675 3.9 52.675C3.6 49.075 2.925 44.875 3.75 41.5C4.125 39.85 1.575 39.1 1.2 40.75C0.225 44.875 1.125 49.825 1.425 54.025C1.425 54.7 1.95 55.3 2.7 55.3C7.8 55.3 12.975 55.225 18.075 55.225C18.75 55.225 19.35 54.625 19.35 53.875C19.425 49.975 19.425 46.075 19.425 42.175C19.35 37.075 18.6 33.25 15.15 29.275ZM45.1922 2.125C42.0422 9.775 39.8672 17.875 37.6172 25.825L34.0922 18.625C31.5422 13.375 28.8422 8.2 26.7422 2.8C26.1422 1.225 23.5922 1.9 24.1922 3.475C26.1422 8.425 28.6172 13.15 30.8672 17.95L34.6922 25.75C35.0672 26.575 35.4422 27.475 35.8922 28.3C36.0422 28.6 36.3422 29.8 36.4172 29.35V29.65C34.8422 34.825 33.3422 40 31.7672 45.1C30.8672 47.875 30.1922 51.025 28.9172 53.575C28.1672 55.075 30.4172 56.35 31.1672 54.85C32.4422 52.375 33.1172 49.525 33.9422 46.9C35.6672 41.425 37.2422 35.95 38.8922 30.55C41.6672 21.325 44.0672 11.725 47.6672 2.8C48.3422 1.225 45.7922 0.549999 45.1922 2.125ZM70.9875 1.3C71.0625 -0.425002 68.4375 -0.425002 68.3625 1.3C67.8375 16.525 68.5125 31.75 68.5875 47.05C66.3375 40.375 64.5375 33.175 62.5125 26.575C60.0375 18.325 56.8125 9.925 55.0875 1.45C54.7125 -0.050002 52.4625 0.324998 52.4625 1.75V28.075C52.4625 36.775 52.1625 45.55 52.5375 54.25C52.6125 55.9 55.2375 55.9 55.1625 54.25C54.7875 45.55 55.0875 36.775 55.0875 28.075V12.025C56.7375 17.35 58.6125 22.675 60.1875 27.925C62.8875 36.85 65.1375 46.225 68.8125 54.85C69.3375 56.05 71.2125 55.375 71.2125 54.175C71.3625 36.55 70.3875 18.85 70.9875 1.3ZM99.3797 1.675C91.9547 1.15 84.0047 1.225 76.6547 2.125C75.0047 2.275 75.0047 4.9 76.6547 4.75C79.8047 4.375 83.0297 4.15 86.2547 4V4.075C86.2547 4.075 86.8547 37.525 86.4797 54.175C86.4047 55.9 89.0297 55.825 89.1047 54.1C89.4797 37.45 88.8797 21.1 88.8797 4.075V4C92.4047 3.925 95.9297 4.075 99.3797 4.3C101.03 4.375 101.03 1.825 99.3797 1.675ZM121.164 53.425C119.589 43.3 118.014 33.025 116.289 22.825C115.389 17.65 114.564 12.55 113.514 7.375C113.139 5.8 112.989 3.475 111.939 2.2C110.814 0.849995 109.389 1.525 108.639 2.875C107.289 5.5 107.289 9.4 106.914 12.25C106.239 17.125 105.564 21.925 104.964 26.8C103.764 35.65 102.639 44.65 101.139 53.425C100.914 55.15 103.389 55.825 103.689 54.25C104.439 49.9 105.039 45.475 105.639 41.2H105.714C107.289 40.525 109.539 40.675 111.264 40.6C112.839 40.525 115.089 40.225 116.589 40.75C117.264 45.25 118.014 49.75 118.689 54.25C118.839 55.825 121.464 55.15 121.164 53.425ZM111.264 37.975C109.614 37.975 107.739 37.975 106.089 38.35C107.439 28.225 108.639 18.175 110.139 8.05C110.214 7.3 110.289 6.625 110.514 5.95C110.814 7.525 111.189 9.175 111.489 10.825C112.464 15.85 113.364 20.875 114.189 25.825C114.789 29.875 115.464 33.925 116.139 37.9C114.564 37.75 112.689 37.9 111.264 37.975ZM137.882 28.225C141.182 19.975 144.632 11.725 148.232 3.55C148.907 2.05 146.657 0.699997 145.982 2.275C142.682 9.7 139.532 17.2 136.457 24.775C133.382 17.05 130.232 9.4 127.157 1.675C126.557 0.175 124.007 0.849995 124.682 2.425C128.057 11.05 131.582 19.6 135.032 28.225C131.657 36.775 128.357 45.325 125.132 53.875C124.532 55.45 127.007 56.125 127.607 54.55C130.532 46.975 133.457 39.325 136.457 31.75C139.532 39.325 142.607 46.975 145.607 54.55C146.207 56.125 148.757 55.45 148.157 53.875C144.782 45.325 141.332 36.775 137.882 28.225Z" fill="black"/>
</svg>
