<svg width="127" height="56" viewBox="0 0 127 56" fill="none" xmlns="http://www.w3.org/2000/svg">
<path d="M24.175 1.675C16.75 1.15 8.8 1.225 1.45 2.125C-0.2 2.275 -0.2 4.9 1.45 4.75C4.6 4.375 7.825 4.15 11.05 4V4.075C11.05 4.075 11.65 37.525 11.275 54.175C11.2 55.9 13.825 55.825 13.9 54.1C14.275 37.45 13.675 21.1 13.675 4.075V4C17.2 3.925 20.725 4.075 24.175 4.3C25.825 4.375 25.825 1.825 24.175 1.675ZM49.6346 2.125C46.4846 9.775 44.3096 17.875 42.0596 25.825L38.5346 18.625C35.9846 13.375 33.2846 8.2 31.1846 2.8C30.5846 1.225 28.0346 1.9 28.6346 3.475C30.5846 8.425 33.0596 13.15 35.3096 17.95L39.1346 25.75C39.5096 26.575 39.8846 27.475 40.3346 28.3C40.4846 28.6 40.7846 29.8 40.8596 29.35V29.65C39.2846 34.825 37.7846 40 36.2096 45.1C35.3096 47.875 34.6346 51.025 33.3596 53.575C32.6096 55.075 34.8596 56.35 35.6096 54.85C36.8846 52.375 37.5596 49.525 38.3846 46.9C40.1096 41.425 41.6846 35.95 43.3346 30.55C46.1096 21.325 48.5096 11.725 52.1096 2.8C52.7846 1.225 50.2346 0.549999 49.6346 2.125ZM72.4299 1.975C68.3049 0.699997 62.9799 1.6 58.7049 1.9C57.9549 1.9 57.4299 2.425 57.3549 3.175C56.7549 19.825 56.7549 36.1 56.7549 54.1C56.7549 55.75 59.3799 55.75 59.3799 54.1C59.3799 46.975 59.3799 39.85 59.4549 32.725C63.5049 33.625 69.2799 33.175 72.9549 31.45C74.8299 30.55 74.5299 27.775 74.6799 26.05C74.9799 22.225 75.2049 18.325 75.3549 14.425C75.4299 11.35 76.5549 3.175 72.4299 1.975ZM72.7299 12.775C72.7299 18.175 72.2799 23.5 71.7549 28.825C71.6049 30.775 61.3299 30.475 59.6799 30.1C59.6049 30.1 59.5299 30.1 59.4549 30.025C59.5299 21.475 59.6799 12.925 59.9799 4.45C62.9799 4.225 66.0549 4.15 69.0549 4.225C70.8549 4.225 71.9799 4 72.3549 5.875C72.8799 8.125 72.7299 10.525 72.7299 12.775ZM101.049 52C96.0238 52.6 90.7738 52.825 85.6738 52.6C85.6738 43.675 85.8238 34.75 85.8988 25.75C90.0238 25.9 94.2988 25.6 98.4238 25.15C100.074 25 100.149 22.375 98.4238 22.525C94.2988 23.05 90.0988 23.275 85.8988 23.125C85.9738 16.6 86.0488 10.075 86.0488 3.475C90.9988 3.7 96.1738 3.475 101.049 2.875C102.699 2.725 102.699 0.099996 101.049 0.249999C95.9488 0.849995 90.5488 1.075 85.3738 0.849995C84.6238 0.474996 83.4238 0.849995 83.4238 1.975C83.4988 19.225 83.0488 36.4 83.0488 53.575C83.0488 54.25 83.4988 54.7 84.0238 54.775C84.2488 55 84.5488 55.225 84.9238 55.225C90.2488 55.45 95.7988 55.225 101.049 54.625C102.699 54.475 102.699 51.85 101.049 52ZM121.95 29.275C118.275 24.925 112.8 21.925 111.45 16C110.625 12.325 110.625 8.275 110.925 4.525C113.775 4.15 116.625 3.925 119.475 3.925C121.8 4 123.375 4 123.675 6.625C123.975 9.325 123.525 12.025 123.45 14.725C123.45 16.375 126.075 16.375 126.075 14.725C126.15 10.225 128.175 2.725 122.175 1.6C118.05 0.849995 113.475 1.45 109.35 2.05C108.75 2.2 108.45 2.8 108.375 3.325C108.075 7.15 108.075 11.05 108.6 14.875C109.275 20.125 112.2 23.5 116.025 27.025C118.125 29.05 120.225 31 121.875 33.4C123.45 35.875 123.525 38.65 123.6 41.5V52.6C119.25 52.6 114.975 52.675 110.7 52.675C110.4 49.075 109.725 44.875 110.55 41.5C110.925 39.85 108.375 39.1 108 40.75C107.025 44.875 107.925 49.825 108.225 54.025C108.225 54.7 108.75 55.3 109.5 55.3C114.6 55.3 119.775 55.225 124.875 55.225C125.55 55.225 126.15 54.625 126.15 53.875C126.225 49.975 126.225 46.075 126.225 42.175C126.15 37.075 125.4 33.25 121.95 29.275Z" fill="black"/>
</svg>
