<svg width="210" height="57" viewBox="0 0 210 57" fill="none" xmlns="http://www.w3.org/2000/svg">
<path d="M22.8 3.65C19.95 19.25 16.575 34.7 13.125 50.15C12.825 48.95 12.6 47.75 12.375 46.55C11.25 41.825 10.275 37.025 9.3 32.3C7.35 22.7 5.55 13.1 3.3 3.65C2.85 2 0.375 2.675 0.75 4.325C3.075 14.075 4.95 23.975 6.9 33.725C7.875 38.45 8.85 43.175 9.975 47.825C10.575 50.45 11.025 53.3 12.225 55.775C12.75 56.75 14.4 56.525 14.625 55.4C18.45 38.45 22.2 21.425 25.35 4.325C25.65 2.675 23.1 2 22.8 3.65ZM50.9977 54.425C49.4227 44.3 47.8477 34.025 46.1227 23.825C45.2227 18.65 44.3977 13.55 43.3477 8.375C42.9727 6.8 42.8227 4.475 41.7727 3.2C40.6477 1.85 39.2227 2.525 38.4727 3.875C37.1227 6.5 37.1227 10.4 36.7477 13.25C36.0727 18.125 35.3977 22.925 34.7977 27.8C33.5977 36.65 32.4727 45.65 30.9727 54.425C30.7477 56.15 33.2227 56.825 33.5227 55.25C34.2727 50.9 34.8727 46.475 35.4727 42.2H35.5477C37.1227 41.525 39.3727 41.675 41.0977 41.6C42.6727 41.525 44.9227 41.225 46.4227 41.75C47.0977 46.25 47.8477 50.75 48.5227 55.25C48.6727 56.825 51.2977 56.15 50.9977 54.425ZM41.0977 38.975C39.4477 38.975 37.5727 38.975 35.9227 39.35C37.2727 29.225 38.4727 19.175 39.9727 9.05C40.0477 8.3 40.1227 7.625 40.3477 6.95C40.6477 8.525 41.0227 10.175 41.3227 11.825C42.2977 16.85 43.1977 21.875 44.0227 26.825C44.6227 30.875 45.2977 34.925 45.9727 38.9C44.3977 38.75 42.5227 38.9 41.0977 38.975ZM72.0662 53.45C68.5412 53.975 64.8662 53.975 61.3412 53.675C60.6662 53.6 60.2162 53.375 60.0662 53.45V51.725C60.0662 45.8 60.1412 39.95 60.2162 34.025C60.2912 27.125 60.3662 20.15 60.2912 13.175C60.2912 10.7 60.2912 8.15 60.2162 5.675C60.2162 4.7 60.2912 3.2 59.7662 2.3C58.9412 0.874999 56.6912 2.15 57.5162 3.65C57.2912 3.275 57.5162 3.875 57.5162 4.325C57.5912 5.225 57.5912 6.125 57.6662 7.1C57.7412 10.025 57.7412 13.025 57.7412 16.025C57.7412 23.75 57.5912 31.4 57.5162 39.125C57.5162 44.075 57.2912 49.025 57.4412 53.9C57.5162 56 59.6912 56.075 61.3412 56.3C65.0162 56.675 69.0662 56.525 72.7412 56C74.3912 55.7 73.7162 53.225 72.0662 53.45ZM84.1682 1.85C83.8682 0.124995 81.3932 0.874999 81.6182 2.525C81.5432 1.925 81.6182 2.9 81.6182 3.05V5.075C81.6932 7.175 81.6932 9.275 81.6932 11.45C81.6932 17.75 81.6182 24.05 81.6182 30.425C81.6182 36.275 81.5432 42.125 81.5432 47.975C81.5432 49.775 80.6432 54.425 81.9932 56C83.0432 57.275 84.9182 55.4 83.7932 54.125C84.0182 54.35 84.1682 54.575 84.1682 54.725V54.275C84.1682 53.75 84.1682 53.15 84.1682 52.625V46.55C84.1682 40.55 84.2432 34.475 84.2432 28.475C84.2432 22.475 84.3182 16.4 84.3182 10.4C84.3182 7.625 84.6182 4.625 84.1682 1.85ZM109.938 9.425C109.788 7.7 109.713 5.225 108.588 3.8C107.613 2.675 105.588 2.675 104.238 2.525C100.713 2.15 97.1133 2.75 93.5883 2.75C92.8383 2.675 92.4633 3.2 92.3133 3.725C92.3133 3.8 92.2383 3.875 92.2383 4.025C91.6383 6.5 91.9383 9.5 91.9383 12.05C91.8633 17.675 91.9383 23.3 91.9383 28.925C91.9383 37.475 92.5383 46.25 91.9383 54.8C91.9383 55.025 91.9383 55.25 92.0133 55.475C92.2383 56.525 93.8133 57.125 94.4133 55.925C94.0383 56.75 94.2633 56.3 95.3883 56.3H98.0883C100.263 56.3 102.363 56.375 104.463 56.3C106.638 56.225 109.488 56.225 109.863 53.6C110.688 47.225 110.538 40.625 110.613 34.25C110.688 26 110.763 17.6 109.938 9.425ZM107.913 36.275C107.838 41.9 107.913 47.675 107.238 53.375V53.45C107.238 53.675 107.163 53.525 107.238 53.375C106.563 53.6 105.738 53.6 105.063 53.675C103.188 53.825 101.238 53.75 99.3633 53.675C98.4633 53.675 96.3633 53.375 94.6383 53.525C95.0883 45.575 94.5633 37.475 94.5633 29.6C94.4883 24.125 94.4883 18.575 94.5633 13.1C94.5633 10.775 94.3383 7.4 94.6383 5.3C98.0133 5.075 106.113 4.1 106.713 5.9C107.463 8 107.463 10.475 107.613 12.725C108.138 20.525 108.063 28.4 107.913 36.275ZM137.057 54.425C135.482 44.3 133.907 34.025 132.182 23.825C131.282 18.65 130.457 13.55 129.407 8.375C129.032 6.8 128.882 4.475 127.832 3.2C126.707 1.85 125.282 2.525 124.532 3.875C123.182 6.5 123.182 10.4 122.807 13.25C122.132 18.125 121.457 22.925 120.857 27.8C119.657 36.65 118.532 45.65 117.032 54.425C116.807 56.15 119.282 56.825 119.582 55.25C120.332 50.9 120.932 46.475 121.532 42.2H121.607C123.182 41.525 125.432 41.675 127.157 41.6C128.732 41.525 130.982 41.225 132.482 41.75C133.157 46.25 133.907 50.75 134.582 55.25C134.732 56.825 137.357 56.15 137.057 54.425ZM127.157 38.975C125.507 38.975 123.632 38.975 121.982 39.35C123.332 29.225 124.532 19.175 126.032 9.05C126.107 8.3 126.182 7.625 126.407 6.95C126.707 8.525 127.082 10.175 127.382 11.825C128.357 16.85 129.257 21.875 130.082 26.825C130.682 30.875 131.357 34.925 132.032 38.9C130.457 38.75 128.582 38.9 127.157 38.975ZM160.024 2.675C152.599 2.15 144.649 2.225 137.299 3.125C135.649 3.275 135.649 5.9 137.299 5.75C140.449 5.375 143.674 5.15 146.899 5V5.075C146.899 5.075 147.499 38.525 147.124 55.175C147.049 56.9 149.674 56.825 149.749 55.1C150.124 38.45 149.524 22.1 149.524 5.075V5C153.049 4.925 156.574 5.075 160.024 5.3C161.674 5.375 161.674 2.825 160.024 2.675ZM183.47 7.475C183.32 5.975 183.395 3.2 181.67 2.525C179.195 1.55 175.595 2 173.045 2.075C170.945 2.075 168.92 2.225 166.895 2.375C166.595 2.45 166.37 2.525 166.145 2.675C165.92 2.825 165.77 3.05 165.62 3.35C164.945 5.225 165.32 7.925 165.245 9.875L164.795 22.7C164.57 32.15 164.195 41.675 164.57 51.05C164.645 54.125 165.77 55.4 168.92 56C172.52 56.675 178.97 57.05 182.195 54.65C183.995 53.3 183.62 49.4 183.695 47.45C183.995 42.5 184.07 37.625 184.145 32.75C184.22 23.75 184.37 16.4 183.47 7.475ZM181.22 44.975C181.145 46.85 181.595 52.325 179.945 52.925C178.295 53.45 167.57 54.875 167.27 52.475C166.295 44.075 167.12 35.225 167.345 26.75C167.42 21.2 167.57 17.3 167.795 11.75L168.02 6.35C168.02 5.975 168.095 5.45 168.095 4.925C169.745 4.85 171.395 4.7 173.045 4.7C174.77 4.625 176.495 4.625 178.22 4.775C178.97 4.775 179.72 4.85 180.47 5C181.37 8 181.22 11.6 181.295 14.75C181.745 25.325 181.67 34.325 181.22 44.975ZM209.269 54.65C206.944 47.225 203.869 40.025 201.019 32.75C202.969 32.675 205.444 32.525 206.794 31.325C207.919 30.275 207.919 28.25 208.144 26.825C208.519 23.825 208.594 20.825 208.669 17.75C208.819 13.775 209.494 7.775 207.394 4.175C206.569 2.675 204.094 2.9 202.669 2.825C199.144 2.6 195.619 2.525 192.094 2.75C191.194 2.75 190.894 3.5 190.969 4.25C190.894 4.325 190.969 4.475 190.969 4.625C190.969 21.425 190.594 38.75 190.594 55.025C190.594 56.975 193.144 56.975 193.144 55.025C193.219 47.675 193.219 40.175 193.294 32.675C194.944 32.9 196.594 32.9 198.319 32.9C201.169 40.325 204.319 47.75 206.794 55.4C207.244 56.975 209.794 56.3 209.269 54.65ZM193.294 29.975C193.369 21.8 193.369 13.475 193.369 5.3C195.394 5.225 197.419 5.225 199.444 5.3C200.344 5.3 204.919 5.075 205.294 5.675C205.969 6.95 205.894 8.9 205.969 10.325C206.119 12.575 206.119 14.825 206.119 17.075C206.044 21.05 205.969 25.175 205.144 29.075C204.694 31.1 195.469 30.35 193.294 29.975Z" fill="black"/>
</svg>
