<svg width="212" height="57" viewBox="0 0 212 57" fill="none" xmlns="http://www.w3.org/2000/svg">
<path d="M22.8 3.65C19.95 19.25 16.575 34.7 13.125 50.15C12.825 48.95 12.6 47.75 12.375 46.55C11.25 41.825 10.275 37.025 9.3 32.3C7.35 22.7 5.55 13.1 3.3 3.65C2.85 2 0.375 2.675 0.75 4.325C3.075 14.075 4.95 23.975 6.9 33.725C7.875 38.45 8.85 43.175 9.975 47.825C10.575 50.45 11.025 53.3 12.225 55.775C12.75 56.75 14.4 56.525 14.625 55.4C18.45 38.45 22.2 21.425 25.35 4.325C25.65 2.675 23.1 2 22.8 3.65ZM50.9977 54.425C49.4227 44.3 47.8477 34.025 46.1227 23.825C45.2227 18.65 44.3977 13.55 43.3477 8.375C42.9727 6.8 42.8227 4.475 41.7727 3.2C40.6477 1.85 39.2227 2.525 38.4727 3.875C37.1227 6.5 37.1227 10.4 36.7477 13.25C36.0727 18.125 35.3977 22.925 34.7977 27.8C33.5977 36.65 32.4727 45.65 30.9727 54.425C30.7477 56.15 33.2227 56.825 33.5227 55.25C34.2727 50.9 34.8727 46.475 35.4727 42.2H35.5477C37.1227 41.525 39.3727 41.675 41.0977 41.6C42.6727 41.525 44.9227 41.225 46.4227 41.75C47.0977 46.25 47.8477 50.75 48.5227 55.25C48.6727 56.825 51.2977 56.15 50.9977 54.425ZM41.0977 38.975C39.4477 38.975 37.5727 38.975 35.9227 39.35C37.2727 29.225 38.4727 19.175 39.9727 9.05C40.0477 8.3 40.1227 7.625 40.3477 6.95C40.6477 8.525 41.0227 10.175 41.3227 11.825C42.2977 16.85 43.1977 21.875 44.0227 26.825C44.6227 30.875 45.2977 34.925 45.9727 38.9C44.3977 38.75 42.5227 38.9 41.0977 38.975ZM76.0412 54.65C73.7162 47.225 70.6412 40.025 67.7912 32.75C69.7412 32.675 72.2162 32.525 73.5662 31.325C74.6912 30.275 74.6912 28.25 74.9162 26.825C75.2912 23.825 75.3662 20.825 75.4412 17.75C75.5912 13.775 76.2662 7.775 74.1662 4.175C73.3412 2.675 70.8662 2.9 69.4412 2.825C65.9162 2.6 62.3912 2.525 58.8662 2.75C57.9662 2.75 57.6662 3.5 57.7412 4.25C57.6662 4.325 57.7412 4.475 57.7412 4.625C57.7412 21.425 57.3662 38.75 57.3662 55.025C57.3662 56.975 59.9162 56.975 59.9162 55.025C59.9912 47.675 59.9912 40.175 60.0662 32.675C61.7162 32.9 63.3662 32.9 65.0912 32.9C67.9412 40.325 71.0912 47.75 73.5662 55.4C74.0162 56.975 76.5662 56.3 76.0412 54.65ZM60.0662 29.975C60.1412 21.8 60.1412 13.475 60.1412 5.3C62.1662 5.225 64.1912 5.225 66.2162 5.3C67.1162 5.3 71.6912 5.075 72.0662 5.675C72.7412 6.95 72.6662 8.9 72.7412 10.325C72.8912 12.575 72.8912 14.825 72.8912 17.075C72.8162 21.05 72.7412 25.175 71.9162 29.075C71.4662 31.1 62.2412 30.35 60.0662 29.975ZM85.4133 1.85C85.1133 0.124995 82.6383 0.874999 82.8633 2.525C82.7883 1.925 82.8633 2.9 82.8633 3.05V5.075C82.9383 7.175 82.9383 9.275 82.9383 11.45C82.9383 17.75 82.8633 24.05 82.8633 30.425C82.8633 36.275 82.7883 42.125 82.7883 47.975C82.7883 49.775 81.8883 54.425 83.2383 56C84.2883 57.275 86.1633 55.4 85.0383 54.125C85.2633 54.35 85.4133 54.575 85.4133 54.725V54.275C85.4133 53.75 85.4133 53.15 85.4133 52.625V46.55C85.4133 40.55 85.4883 34.475 85.4883 28.475C85.4883 22.475 85.5633 16.4 85.5633 10.4C85.5633 7.625 85.8633 4.625 85.4133 1.85ZM112.008 54.425C110.433 44.3 108.858 34.025 107.133 23.825C106.233 18.65 105.408 13.55 104.358 8.375C103.983 6.8 103.833 4.475 102.783 3.2C101.658 1.85 100.233 2.525 99.4834 3.875C98.1334 6.5 98.1334 10.4 97.7584 13.25C97.0834 18.125 96.4084 22.925 95.8084 27.8C94.6084 36.65 93.4834 45.65 91.9834 54.425C91.7584 56.15 94.2334 56.825 94.5334 55.25C95.2834 50.9 95.8834 46.475 96.4834 42.2H96.5584C98.1334 41.525 100.383 41.675 102.108 41.6C103.683 41.525 105.933 41.225 107.433 41.75C108.108 46.25 108.858 50.75 109.533 55.25C109.683 56.825 112.308 56.15 112.008 54.425ZM102.108 38.975C100.458 38.975 98.5834 38.975 96.9334 39.35C98.2834 29.225 99.4834 19.175 100.983 9.05C101.058 8.3 101.133 7.625 101.358 6.95C101.658 8.525 102.033 10.175 102.333 11.825C103.308 16.85 104.208 21.875 105.033 26.825C105.633 30.875 106.308 34.925 106.983 38.9C105.408 38.75 103.533 38.9 102.108 38.975ZM136.752 38.975C136.677 35.3 136.752 30.5 135.252 27.05C134.727 25.775 133.677 24.95 132.402 24.5C132.702 24.2 132.927 23.975 133.152 23.675C135.327 20.6 135.252 15.2 135.102 11.675C134.952 9.05 134.727 4.025 131.577 3.05C128.577 2.075 123.777 1.325 120.477 2.45C119.727 1.925 118.452 2.15 118.377 3.35V3.425V3.95C118.377 4.25 118.452 4.475 118.527 4.7C119.352 12.875 118.752 21.725 118.677 30.05C118.677 38.225 119.052 46.55 118.377 54.725C118.302 55.7 119.202 56.075 119.952 55.925C120.027 55.925 120.102 55.925 120.177 55.925H120.327C124.452 55.925 132.852 57.725 135.177 53.375C137.277 49.325 136.827 43.4 136.752 38.975ZM130.527 5.45C132.702 5.975 132.552 11.45 132.552 13.1C132.627 15.95 132.477 19.325 131.202 22.025C130.752 23 129.477 23.6 127.902 23.9C125.727 23.9 123.552 24.2 121.827 24.275H121.452C121.602 17.825 121.827 11.3 121.152 4.925C123.777 3.95 128.127 4.85 130.527 5.45ZM133.302 50.825C132.702 53.225 131.277 53.225 128.877 53.375C126.252 53.525 123.552 53.3 121.077 53.3C121.602 45.65 121.302 37.775 121.302 30.125C121.302 29 121.377 27.95 121.377 26.9H121.677C123.627 26.825 125.877 26.825 127.977 26.45C130.452 26.45 132.627 26.825 133.152 28.475C134.052 31.775 133.977 35.6 134.127 38.975C134.202 42.95 134.202 47 133.302 50.825ZM159.005 53.45C155.48 53.975 151.805 53.975 148.28 53.675C147.605 53.6 147.155 53.375 147.005 53.45V51.725C147.005 45.8 147.08 39.95 147.155 34.025C147.23 27.125 147.305 20.15 147.23 13.175C147.23 10.7 147.23 8.15 147.155 5.675C147.155 4.7 147.23 3.2 146.705 2.3C145.88 0.874999 143.63 2.15 144.455 3.65C144.23 3.275 144.455 3.875 144.455 4.325C144.53 5.225 144.53 6.125 144.605 7.1C144.68 10.025 144.68 13.025 144.68 16.025C144.68 23.75 144.53 31.4 144.455 39.125C144.455 44.075 144.23 49.025 144.38 53.9C144.455 56 146.63 56.075 148.28 56.3C151.955 56.675 156.005 56.525 159.68 56C161.33 55.7 160.655 53.225 159.005 53.45ZM186.182 53C181.157 53.6 175.907 53.825 170.807 53.6C170.807 44.675 170.957 35.75 171.032 26.75C175.157 26.9 179.432 26.6 183.557 26.15C185.207 26 185.282 23.375 183.557 23.525C179.432 24.05 175.232 24.275 171.032 24.125C171.107 17.6 171.182 11.075 171.182 4.475C176.132 4.7 181.307 4.475 186.182 3.875C187.832 3.725 187.832 1.1 186.182 1.25C181.082 1.85 175.682 2.075 170.507 1.85C169.757 1.475 168.557 1.85 168.557 2.975C168.632 20.225 168.182 37.4 168.182 54.575C168.182 55.25 168.632 55.7 169.157 55.775C169.382 56 169.682 56.225 170.057 56.225C175.382 56.45 180.932 56.225 186.182 55.625C187.832 55.475 187.832 52.85 186.182 53ZM207.083 30.275C203.408 25.925 197.933 22.925 196.583 17C195.758 13.325 195.758 9.275 196.058 5.525C198.908 5.15 201.758 4.925 204.608 4.925C206.933 5 208.508 5 208.808 7.625C209.108 10.325 208.658 13.025 208.583 15.725C208.583 17.375 211.208 17.375 211.208 15.725C211.283 11.225 213.308 3.725 207.308 2.6C203.183 1.85 198.608 2.45 194.483 3.05C193.883 3.2 193.583 3.8 193.508 4.325C193.208 8.15 193.208 12.05 193.733 15.875C194.408 21.125 197.333 24.5 201.158 28.025C203.258 30.05 205.358 32 207.008 34.4C208.583 36.875 208.658 39.65 208.733 42.5V53.6C204.383 53.6 200.108 53.675 195.833 53.675C195.533 50.075 194.858 45.875 195.683 42.5C196.058 40.85 193.508 40.1 193.133 41.75C192.158 45.875 193.058 50.825 193.358 55.025C193.358 55.7 193.883 56.3 194.633 56.3C199.733 56.3 204.908 56.225 210.008 56.225C210.683 56.225 211.283 55.625 211.283 54.875C211.358 50.975 211.358 47.075 211.358 43.175C211.283 38.075 210.533 34.25 207.083 30.275Z" fill="black"/>
</svg>
