<svg width="565" height="233" viewBox="0 0 565 233" fill="none" xmlns="http://www.w3.org/2000/svg">
<path d="M286.5 125.45C286.35 103.85 285.3 82.1 286.2 60.5C286.35 57.05 281.1 57.05 280.95 60.5C280.2 78.95 281.1 97.55 281.25 116C281.25 127.25 281.4 138.65 281.25 150.05C281.25 153.35 281.25 156.65 281.1 159.95C281.1 162.2 281.55 161.6 278.85 161.9C274.05 162.35 263.85 161.9 259.05 162.35C255.75 162.5 255.75 167.75 259.05 167.6C263.25 167.15 283.05 169.7 285.45 164.45C286.5 162.35 286.35 160.1 286.5 157.85C286.65 147.05 286.5 136.25 286.5 125.45ZM346.621 60.05C345.871 56.75 340.771 58.1 341.671 61.4C341.371 60.35 341.671 63.95 341.671 64.85C341.671 68.3 341.671 71.6 341.521 75.05C341.521 85.25 341.371 95.3 341.221 105.35C341.071 123.5 340.921 141.5 340.321 159.65C340.321 160.1 340.321 160.55 340.171 160.7C338.671 161.45 336.571 161.6 335.071 161.75C329.521 162.5 323.671 162.5 318.121 162.2C315.721 162.05 313.171 161.9 310.771 161.45C309.871 161.3 307.471 160.1 307.921 161.15C306.871 158.6 307.021 155.15 306.871 152.45C305.821 128.15 307.171 103.55 307.621 79.25C307.771 73.55 307.921 67.7 307.921 62C307.921 58.7 302.671 58.7 302.671 62C302.671 86.45 301.471 110.9 301.471 135.35C301.471 143.75 301.171 152.45 302.371 160.85C303.421 167.3 311.671 167 316.771 167.45C324.571 167.9 336.721 169.1 343.471 164.75C346.921 162.65 345.721 154.85 345.721 151.55C346.171 130.85 346.471 110.3 346.621 89.75C346.771 82.7 346.771 75.8 346.921 68.9C346.921 66.05 347.371 62.75 346.621 60.05ZM399.465 59.6C399.615 56.15 394.365 56.15 394.215 59.6C393.165 90.05 394.515 120.5 394.665 151.1C390.165 137.75 386.565 123.35 382.515 110.15C377.565 93.65 371.115 76.85 367.665 59.9C366.915 56.9 362.415 57.65 362.415 60.5V113.15C362.415 130.55 361.815 148.1 362.565 165.5C362.715 168.8 367.965 168.8 367.815 165.5C367.065 148.1 367.665 130.55 367.665 113.15V81.05C370.965 91.7 374.715 102.35 377.865 112.85C383.265 130.7 387.765 149.45 395.115 166.7C396.165 169.1 399.915 167.75 399.915 165.35C400.215 130.1 398.265 94.7 399.465 59.6ZM449.8 103.55C446.5 101.3 433.3 101.6 430.6 104.9C428.65 107.6 432.25 111.2 434.35 108.65C434.95 107.9 439.45 107.9 440.65 107.9C441.85 107.75 443.2 107.75 444.55 107.75C445.9 107.75 447.25 108.95 446.5 107.15C447.55 109.55 446.95 113.3 446.95 115.85C447.1 126.35 446.65 136.85 446.05 147.2C445.75 151.25 445.45 155.45 444.7 159.35C444.7 159.95 444.55 160.7 444.4 161.3H444.1C442.75 161.6 441.55 161.75 440.2 161.75C435.1 162.35 429.85 162.5 424.75 162.35C423.1 162.2 421.3 161 421.15 162.35C421.15 161.6 421 160.85 421 160.25C419.95 142.25 420.1 124.25 420.25 106.25C420.4 96.35 420.7 86.45 421.75 76.55C422.05 73.4 422.5 70.25 423.25 67.25C424 64.1 423.7 65.15 427 64.85C431.95 64.55 436.75 64.4 441.55 64.55C443.8 64.55 444.85 64.1 445.45 66.2C446.5 69.2 445.9 72.95 446.05 76.1C446.35 79.55 451.6 79.55 451.3 76.1C451.15 71.9 452.35 64.55 448.9 61.4C445.9 58.55 441.55 59.15 437.8 59.3C433 59.3 421.9 57.35 419.2 62.9C416.5 68.45 416.5 75.65 416.05 81.65C415.3 92.15 415.15 102.5 415 112.85C414.85 129.2 414.55 145.85 415.9 162.2C416.5 169.1 427.6 167.75 432.55 167.6C437.35 167.45 447.7 168.65 449.5 162.5C451.3 156.05 451.15 148.85 451.6 142.25C452.05 133.4 452.35 124.7 452.2 115.85C452.2 112.25 453.25 105.8 449.8 103.55ZM496.691 161.9C489.641 162.95 482.291 162.95 475.241 162.35C473.891 162.2 472.991 161.75 472.691 161.9V158.45C472.691 146.6 472.841 134.9 472.991 123.05C473.141 109.25 473.291 95.3 473.141 81.35C473.141 76.4 473.141 71.3 472.991 66.35C472.991 64.4 473.141 61.4 472.091 59.6C470.441 56.75 465.941 59.3 467.591 62.3C467.141 61.55 467.591 62.75 467.591 63.65C467.741 65.45 467.741 67.25 467.891 69.2C468.041 75.05 468.041 81.05 468.041 87.05C468.041 102.5 467.741 117.8 467.591 133.25C467.591 143.15 467.141 153.05 467.441 162.8C467.591 167 471.941 167.15 475.241 167.6C482.591 168.35 490.691 168.05 498.041 167C501.341 166.4 499.991 161.45 496.691 161.9ZM552.169 163.85C549.019 143.6 545.869 123.05 542.419 102.65C540.619 92.3 538.969 82.1 536.869 71.75C536.119 68.6 535.819 63.95 533.719 61.4C531.469 58.7 528.619 60.05 527.119 62.75C524.419 68 524.419 75.8 523.669 81.5C522.319 91.25 520.969 100.85 519.769 110.6C517.369 128.3 515.119 146.3 512.119 163.85C511.669 167.3 516.619 168.65 517.219 165.5C518.719 156.8 519.919 147.95 521.119 139.4H521.269C524.419 138.05 528.919 138.35 532.369 138.2C535.519 138.05 540.019 137.45 543.019 138.5C544.369 147.5 545.869 156.5 547.219 165.5C547.519 168.65 552.769 167.3 552.169 163.85ZM532.369 132.95C529.069 132.95 525.319 132.95 522.019 133.7C524.719 113.45 527.119 93.35 530.119 73.1C530.269 71.6 530.419 70.25 530.869 68.9C531.469 72.05 532.219 75.35 532.819 78.65C534.769 88.7 536.569 98.75 538.219 108.65C539.419 116.75 540.769 124.85 542.119 132.8C538.969 132.5 535.219 132.8 532.369 132.95Z" fill="black"/>
<path d="M1 151.5L101.5 67L207 151.5L103.5 232L1 151.5Z" fill="#98FFC5" stroke="#98FFC5"/>
<path d="M1 150.5L101.5 66L207 150.5L103.5 231L1 150.5Z" fill="#98FFC5" stroke="#98FFC5"/>
<path d="M1 149.5L101.5 65L207 149.5L103.5 230L1 149.5Z" fill="#98FFC5" stroke="#98FFC5"/>
<path d="M1 148.5L101.5 64L207 148.5L103.5 229L1 148.5Z" fill="#98FFC5" stroke="#98FFC5"/>
<path d="M1 147.5L101.5 63L207 147.5L103.5 228L1 147.5Z" fill="#98FFC5" stroke="#98FFC5"/>
<path d="M1 146.5L101.5 62L207 146.5L103.5 227L1 146.5Z" fill="#98FFC5" stroke="#98FFC5"/>
<path d="M1 145.5L101.5 61L207 145.5L103.5 226L1 145.5Z" fill="#98FFC5" stroke="#98FFC5"/>
<path d="M1 144.5L101.5 60L207 144.5L103.5 225L1 144.5Z" fill="#98FFC5" stroke="#98FFC5"/>
<path d="M1 143.5L101.5 59L207 143.5L103.5 224L1 143.5Z" fill="#98FFC5" stroke="#98FFC5"/>
<path d="M1 142.5L101.5 58L207 142.5L103.5 223L1 142.5Z" fill="#98FFC5" stroke="#98FFC5"/>
<path d="M1 141.5L101.5 57L207 141.5L103.5 222L1 141.5Z" fill="#98FFC5" stroke="#98FFC5"/>
<path d="M1 140.5L101.5 56L207 140.5L103.5 221L1 140.5Z" fill="#98FFC5" stroke="#98FFC5"/>
<path d="M1 139.5L101.5 55L207 139.5L103.5 220L1 139.5Z" fill="#98FFC5" stroke="#98FFC5"/>
<path d="M1 138.5L101.5 54L207 138.5L103.5 219L1 138.5Z" fill="#98FFC5" stroke="#98FFC5"/>
<path d="M1 137.5L101.5 53L207 137.5L103.5 218L1 137.5Z" fill="#98FFC5" stroke="#98FFC5"/>
<path d="M1 136.5L101.5 52L207 136.5L103.5 217L1 136.5Z" fill="#98FFC5" stroke="#98FFC5"/>
<path d="M1 135.5L101.5 51L207 135.5L103.5 216L1 135.5Z" fill="#98FFC5" stroke="#98FFC5"/>
<path d="M1 134.5L101.5 50L207 134.5L103.5 215L1 134.5Z" fill="#98FFC5" stroke="#98FFC5"/>
<path d="M1 133.5L101.5 49L207 133.5L103.5 214L1 133.5Z" fill="#98FFC5" stroke="#98FFC5"/>
<path d="M1 132.5L101.5 48L207 132.5L103.5 213L1 132.5Z" fill="#98FFC5" stroke="#98FFC5"/>
<path d="M1 131.5L101.5 47L207 131.5L103.5 212L1 131.5Z" fill="#98FFC5" stroke="#98FFC5"/>
<path d="M1 130.5L101.5 46L207 130.5L103.5 211L1 130.5Z" fill="#98FFC5" stroke="#98FFC5"/>
<path d="M1 129.5L101.5 45L207 129.5L103.5 210L1 129.5Z" fill="#76FFB2" stroke="#76FFB2"/>
<path d="M1 128.5L101.5 44L207 128.5L103.5 209L1 128.5Z" fill="#76FFB2" stroke="#76FFB2"/>
<path d="M1 127.5L101.5 43L207 127.5L103.5 208L1 127.5Z" fill="#76FFB2" stroke="#76FFB2"/>
<path d="M1 126.5L101.5 42L207 126.5L103.5 207L1 126.5Z" fill="#76FFB2" stroke="#76FFB2"/>
<path d="M1 125.5L101.5 41L207 125.5L103.5 206L1 125.5Z" fill="#76FFB2" stroke="#76FFB2"/>
<path d="M1 124.5L101.5 40L207 124.5L103.5 205L1 124.5Z" fill="#76FFB2" stroke="#76FFB2"/>
<path d="M1 123.5L101.5 39L207 123.5L103.5 204L1 123.5Z" fill="#76FFB2" stroke="#76FFB2"/>
<path d="M1 122.5L101.5 38L207 122.5L103.5 203L1 122.5Z" fill="#76FFB2" stroke="#76FFB2"/>
<path d="M1 121.5L101.5 37L207 121.5L103.5 202L1 121.5Z" fill="#76FFB2" stroke="#76FFB2"/>
<path d="M1 120.5L101.5 36L207 120.5L103.5 201L1 120.5Z" fill="#76FFB2" stroke="#76FFB2"/>
<path d="M1 119.5L101.5 35L207 119.5L103.5 200L1 119.5Z" fill="#76FFB2" stroke="#76FFB2"/>
<path d="M1 118.5L101.5 34L207 118.5L103.5 199L1 118.5Z" fill="#76FFB2" stroke="#76FFB2"/>
<path d="M1 117.5L101.5 33L207 117.5L103.5 198L1 117.5Z" fill="#76FFB2" stroke="#76FFB2"/>
<path d="M1 116.5L101.5 32L207 116.5L103.5 197L1 116.5Z" fill="#76FFB2" stroke="#76FFB2"/>
<path d="M1 115.5L101.5 31L207 115.5L103.5 196L1 115.5Z" fill="#76FFB2" stroke="#76FFB2"/>
<path d="M1 114.5L101.5 30L207 114.5L103.5 195L1 114.5Z" fill="#76FFB2" stroke="#76FFB2"/>
<path d="M1 113.5L101.5 29L207 113.5L103.5 194L1 113.5Z" fill="#76FFB2" stroke="#76FFB2"/>
<path d="M1 112.5L101.5 28L207 112.5L103.5 193L1 112.5Z" fill="#76FFB2" stroke="#76FFB2"/>
<path d="M1 111.5L101.5 27L207 111.5L103.5 192L1 111.5Z" fill="#76FFB2" stroke="#76FFB2"/>
<path d="M1 110.5L101.5 26L207 110.5L103.5 191L1 110.5Z" fill="#76FFB2" stroke="#76FFB2"/>
<path d="M1 109.5L101.5 25L207 109.5L103.5 190L1 109.5Z" fill="#76FFB2" stroke="#76FFB2"/>
<path d="M1 108.5L101.5 24L207 108.5L103.5 189L1 108.5Z" fill="#76FFB2" stroke="#76FFB2"/>
<path d="M1 107.5L101.5 23L207 107.5L103.5 188L1 107.5Z" fill="#54FF9F" stroke="#54FF9F"/>
<path d="M1 106.5L101.5 22L207 106.5L103.5 187L1 106.5Z" fill="#54FF9F" stroke="#54FF9F"/>
<path d="M1 105.5L101.5 21L207 105.5L103.5 186L1 105.5Z" fill="#54FF9F" stroke="#54FF9F"/>
<path d="M1 104.5L101.5 20L207 104.5L103.5 185L1 104.5Z" fill="#54FF9F" stroke="#54FF9F"/>
<path d="M1 103.5L101.5 19L207 103.5L103.5 184L1 103.5Z" fill="#54FF9F" stroke="#54FF9F"/>
<path d="M1 102.5L101.5 18L207 102.5L103.5 183L1 102.5Z" fill="#54FF9F" stroke="#54FF9F"/>
<path d="M1 101.5L101.5 17L207 101.5L103.5 182L1 101.5Z" fill="#54FF9F" stroke="#54FF9F"/>
<path d="M1 100.5L101.5 16L207 100.5L103.5 181L1 100.5Z" fill="#54FF9F" stroke="#54FF9F"/>
<path d="M1 99.5L101.5 15L207 99.5L103.5 180L1 99.5Z" fill="#54FF9F" stroke="#54FF9F"/>
<path d="M1 98.5L101.5 14L207 98.5L103.5 179L1 98.5Z" fill="#54FF9F" stroke="#54FF9F"/>
<path d="M1 97.5L101.5 13L207 97.5L103.5 178L1 97.5Z" fill="#54FF9F" stroke="#54FF9F"/>
<path d="M1 96.5L101.5 12L207 96.5L103.5 177L1 96.5Z" fill="#54FF9F" stroke="#54FF9F"/>
<path d="M1 95.5L101.5 11L207 95.5L103.5 176L1 95.5Z" fill="#54FF9F" stroke="#54FF9F"/>
<path d="M1 94.5L101.5 10L207 94.5L103.5 175L1 94.5Z" fill="#54FF9F" stroke="#54FF9F"/>
<path d="M1 93.5L101.5 9L207 93.5L103.5 174L1 93.5Z" fill="#54FF9F" stroke="#54FF9F"/>
<path d="M1 92.5L101.5 8L207 92.5L103.5 173L1 92.5Z" fill="#54FF9F" stroke="#54FF9F"/>
<path d="M1 91.5L101.5 7L207 91.5L103.5 172L1 91.5Z" fill="#54FF9F" stroke="#54FF9F"/>
<path d="M1 90.5L101.5 6L207 90.5L103.5 171L1 90.5Z" fill="#54FF9F" stroke="#54FF9F"/>
<path d="M1 89.5L101.5 5L207 89.5L103.5 170L1 89.5Z" fill="#54FF9F" stroke="#54FF9F"/>
<path d="M1 88.5L101.5 4L207 88.5L103.5 169L1 88.5Z" fill="#54FF9F" stroke="#54FF9F"/>
<path d="M1 87.5L101.5 3L207 87.5L103.5 168L1 87.5Z" fill="#54FF9F" stroke="#54FF9F"/>
<path d="M1 86.5L101.5 2L207 86.5L103.5 167L1 86.5Z" fill="#54FF9F" stroke="#54FF9F"/>
<path d="M1 85.5L101.5 1L207 85.5L103.5 166L1 85.5Z" fill="#111111" stroke="#111111"/>
<g clip-path="url(#clip0)">
<path d="M102.542 87.7394L106.231 84.0507C107.316 82.9656 107.675 81.405 107.164 79.9789C106.656 78.5553 105.398 77.598 103.88 77.4843L83.5499 75.9727L87.0291 72.4935C88.125 71.3976 88.4697 69.7673 87.9059 68.3461C87.353 66.9453 86.0164 66.0086 84.502 65.9634L57.1068 65.1276C55.6056 65.0788 54.2507 66.4336 54.2983 67.936L55.133 95.3325C55.1782 96.8469 56.1161 98.1822 57.5156 98.7364C58.938 99.2989 60.5684 98.9542 61.6643 97.8583L65.1435 94.3791L66.6562 114.713C66.7712 116.227 67.7273 117.484 69.1509 117.995C70.5758 118.504 72.1352 118.147 73.2214 117.06L76.9102 113.372L78.1617 133.865C78.255 135.404 79.2086 136.685 80.6479 137.209C82.0668 137.725 83.6851 137.356 84.7702 136.271L101.252 119.789L104.19 122.727L106.357 132.19C106.995 134.109 109.432 134.681 110.864 133.249L122.42 121.693C123.852 120.261 123.28 117.824 121.36 117.187L111.897 115.019L108.96 112.081L125.443 95.5982C126.528 94.5131 126.896 92.8948 126.381 91.4759C125.857 90.0367 124.576 89.083 123.037 88.9898L102.542 87.7394ZM153.866 58.1611L133.372 56.9095L137.061 53.2208C138.146 52.1357 138.505 50.5751 137.994 49.1491C137.486 47.7254 136.227 46.7682 134.71 46.6544L114.38 45.1429L117.859 41.6637C118.955 40.5677 119.3 38.9374 118.736 37.5162C118.183 36.1155 116.846 35.1787 115.332 35.1336L87.9366 34.2977C86.4354 34.2489 85.0806 35.6037 85.1282 37.1061L85.8469 60.7208C89.0292 61.232 91.7707 63.2798 92.9737 66.3206C93.6058 67.9161 93.7699 69.6168 93.4997 71.2447L104.308 72.0478C107.938 72.3227 111.074 74.7093 112.296 78.123C112.859 79.6957 112.987 81.3339 112.708 82.8968L123.385 83.5498C125.604 83.6856 126.692 83.6434 128.236 85.1128L135.018 91.8955L137.186 101.359C137.824 103.278 140.26 103.85 141.692 102.418L153.249 90.8617C154.68 89.4298 154.108 86.9933 152.189 86.3556L142.727 84.1892L139.789 81.2515L156.273 64.7683C157.358 63.6833 157.726 62.0649 157.211 60.6461C156.686 59.208 155.404 58.2544 153.866 58.1611Z" fill="white"/>
</g>
<defs>
<clipPath id="clip0">
<rect x="32" y="89.0746" width="109" height="87" transform="rotate(-45 32 89.0746)" fill="white"/>
</clipPath>
</defs>
</svg>
