<svg width="149" height="56" viewBox="0 0 149 56" fill="none" xmlns="http://www.w3.org/2000/svg">
<path d="M15.75 34.225C15.675 23.425 15.15 12.55 15.6 1.75C15.675 0.024997 13.05 0.024997 12.975 1.75C12.6 10.975 13.05 20.275 13.125 29.5C13.125 35.125 13.2 40.825 13.125 46.525C13.125 48.175 13.125 49.825 13.05 51.475C13.05 52.6 13.275 52.3 11.925 52.45C9.525 52.675 4.425 52.45 2.025 52.675C0.375 52.75 0.375 55.375 2.025 55.3C4.125 55.075 14.025 56.35 15.225 53.725C15.75 52.675 15.675 51.55 15.75 50.425C15.825 45.025 15.75 39.625 15.75 34.225ZM45.8104 1.525C45.4354 -0.125001 42.8854 0.549999 43.3354 2.2C43.1854 1.675 43.3354 3.475 43.3354 3.925C43.3354 5.65 43.3354 7.3 43.2604 9.025C43.2604 14.125 43.1854 19.15 43.1104 24.175C43.0354 33.25 42.9604 42.25 42.6604 51.325C42.6604 51.55 42.6604 51.775 42.5854 51.85C41.8354 52.225 40.7854 52.3 40.0354 52.375C37.2604 52.75 34.3354 52.75 31.5604 52.6C30.3604 52.525 29.0854 52.45 27.8854 52.225C27.4354 52.15 26.2354 51.55 26.4604 52.075C25.9354 50.8 26.0104 49.075 25.9354 47.725C25.4104 35.575 26.0854 23.275 26.3104 11.125C26.3854 8.275 26.4604 5.35 26.4604 2.5C26.4604 0.849995 23.8354 0.849995 23.8354 2.5C23.8354 14.725 23.2354 26.95 23.2354 39.175C23.2354 43.375 23.0854 47.725 23.6854 51.925C24.2104 55.15 28.3354 55 30.8854 55.225C34.7854 55.45 40.8604 56.05 44.2354 53.875C45.9604 52.825 45.3604 48.925 45.3604 47.275C45.5854 36.925 45.7354 26.65 45.8104 16.375C45.8854 12.85 45.8854 9.4 45.9604 5.95C45.9604 4.525 46.1854 2.875 45.8104 1.525ZM72.2326 1.3C72.3076 -0.425002 69.6826 -0.425002 69.6076 1.3C69.0826 16.525 69.7576 31.75 69.8326 47.05C67.5826 40.375 65.7826 33.175 63.7576 26.575C61.2826 18.325 58.0576 9.925 56.3326 1.45C55.9576 -0.050002 53.7076 0.324998 53.7076 1.75V28.075C53.7076 36.775 53.4076 45.55 53.7826 54.25C53.8576 55.9 56.4826 55.9 56.4076 54.25C56.0326 45.55 56.3326 36.775 56.3326 28.075V12.025C57.9826 17.35 59.8576 22.675 61.4326 27.925C64.1326 36.85 66.3826 46.225 70.0576 54.85C70.5826 56.05 72.4576 55.375 72.4576 54.175C72.6076 36.55 71.6326 18.85 72.2326 1.3ZM97.3998 23.275C95.7498 22.15 89.1498 22.3 87.7998 23.95C86.8248 25.3 88.6248 27.1 89.6748 25.825C89.9748 25.45 92.2248 25.45 92.8248 25.45C93.4248 25.375 94.0998 25.375 94.7748 25.375C95.4498 25.375 96.1248 25.975 95.7498 25.075C96.2748 26.275 95.9748 28.15 95.9748 29.425C96.0498 34.675 95.8248 39.925 95.5248 45.1C95.3748 47.125 95.2248 49.225 94.8498 51.175C94.8498 51.475 94.7748 51.85 94.6998 52.15H94.5498C93.8748 52.3 93.2748 52.375 92.5998 52.375C90.0498 52.675 87.4248 52.75 84.8748 52.675C84.0498 52.6 83.1498 52 83.0748 52.675C83.0748 52.3 82.9998 51.925 82.9998 51.625C82.4748 42.625 82.5498 33.625 82.6248 24.625C82.6998 19.675 82.8498 14.725 83.3748 9.775C83.5248 8.2 83.7498 6.625 84.1248 5.125C84.4998 3.55 84.3498 4.075 85.9998 3.925C88.4748 3.775 90.8748 3.7 93.2748 3.775C94.3998 3.775 94.9248 3.55 95.2248 4.6C95.7498 6.1 95.4498 7.975 95.5248 9.55C95.6748 11.275 98.2998 11.275 98.1498 9.55C98.0748 7.45 98.6748 3.775 96.9498 2.2C95.4498 0.774996 93.2748 1.075 91.3998 1.15C88.9998 1.15 83.4498 0.175 82.0998 2.95C80.7498 5.725 80.7498 9.325 80.5248 12.325C80.1498 17.575 80.0748 22.75 79.9998 27.925C79.9248 36.1 79.7748 44.425 80.4498 52.6C80.7498 56.05 86.2998 55.375 88.7748 55.3C91.1748 55.225 96.3498 55.825 97.2498 52.75C98.1498 49.525 98.0748 45.925 98.2998 42.625C98.5248 38.2 98.6748 33.85 98.5998 29.425C98.5998 27.625 99.1248 24.4 97.3998 23.275ZM120.846 52.45C117.321 52.975 113.646 52.975 110.121 52.675C109.446 52.6 108.996 52.375 108.846 52.45V50.725C108.846 44.8 108.921 38.95 108.996 33.025C109.071 26.125 109.146 19.15 109.071 12.175C109.071 9.7 109.071 7.15 108.996 4.675C108.996 3.7 109.071 2.2 108.546 1.3C107.721 -0.125001 105.471 1.15 106.296 2.65C106.071 2.275 106.296 2.875 106.296 3.325C106.371 4.225 106.371 5.125 106.446 6.1C106.521 9.025 106.521 12.025 106.521 15.025C106.521 22.75 106.371 30.4 106.296 38.125C106.296 43.075 106.071 48.025 106.221 52.9C106.296 55 108.471 55.075 110.121 55.3C113.796 55.675 117.846 55.525 121.521 55C123.171 54.7 122.496 52.225 120.846 52.45ZM148.584 53.425C147.009 43.3 145.434 33.025 143.709 22.825C142.809 17.65 141.984 12.55 140.934 7.375C140.559 5.8 140.409 3.475 139.359 2.2C138.234 0.849995 136.809 1.525 136.059 2.875C134.709 5.5 134.709 9.4 134.334 12.25C133.659 17.125 132.984 21.925 132.384 26.8C131.184 35.65 130.059 44.65 128.559 53.425C128.334 55.15 130.809 55.825 131.109 54.25C131.859 49.9 132.459 45.475 133.059 41.2H133.134C134.709 40.525 136.959 40.675 138.684 40.6C140.259 40.525 142.509 40.225 144.009 40.75C144.684 45.25 145.434 49.75 146.109 54.25C146.259 55.825 148.884 55.15 148.584 53.425ZM138.684 37.975C137.034 37.975 135.159 37.975 133.509 38.35C134.859 28.225 136.059 18.175 137.559 8.05C137.634 7.3 137.709 6.625 137.934 5.95C138.234 7.525 138.609 9.175 138.909 10.825C139.884 15.85 140.784 20.875 141.609 25.825C142.209 29.875 142.884 33.925 143.559 37.9C141.984 37.75 140.109 37.9 138.684 37.975Z" fill="black"/>
</svg>
