<?xml version="1.0" standalone="no"?>
<!DOCTYPE svg PUBLIC "-//W3C//DTD SVG 20010904//EN"
 "http://www.w3.org/TR/2001/REC-SVG-20010904/DTD/svg10.dtd">
<svg version="1.0" xmlns="http://www.w3.org/2000/svg"
 width="932.000000pt" height="932.000000pt" viewBox="0 0 932.000000 932.000000"
 preserveAspectRatio="xMidYMid meet">
<metadata>
Created by potrace 1.11, written by Peter Selinger 2001-2013
</metadata>
<g transform="translate(0.000000,932.000000) scale(0.100000,-0.100000)"
fill="#000000" stroke="none">
<path d="M4415 9192 c-77 -65 -450 -379 -830 -698 -379 -319 -1032 -867 -1450
-1219 -418 -351 -955 -803 -1192 -1003 -238 -200 -433 -367 -433 -371 0 -4 3
-11 7 -15 5 -4 9 -404 9 -889 1 -485 4 -901 7 -924 4 -27 2 -43 -5 -43 -6 0
-5 -6 3 -16 10 -13 10 -17 0 -24 -7 -4 -9 -10 -4 -13 11 -7 11 -96 0 -114 -4
-6 -1 -13 5 -16 10 -3 10 -7 0 -19 -10 -13 -10 -17 0 -20 10 -4 10 -8 -1 -21
-7 -10 -9 -17 -5 -17 5 0 9 -58 9 -130 0 -71 -4 -130 -9 -130 -4 0 -3 -7 5
-16 10 -13 10 -17 0 -24 -7 -4 -9 -10 -4 -13 11 -7 11 -96 0 -114 -4 -6 -1
-13 5 -16 10 -3 10 -7 -1 -20 -9 -12 -10 -17 -2 -17 8 0 10 -8 6 -19 -4 -15
160 -149 922 -747 511 -400 980 -769 1043 -819 63 -50 410 -323 770 -605 360
-283 814 -640 1009 -793 201 -158 360 -276 367 -273 8 3 935 722 2061 1597
1127 876 2058 1600 2071 1610 12 10 19 20 14 23 -10 6 -10 96 1 113 4 6 1 13
-5 16 -10 3 -10 7 0 19 10 13 10 17 0 20 -11 4 -11 8 0 20 10 13 10 17 0 20
-11 4 -11 8 0 20 10 13 10 17 0 20 -11 4 -11 8 0 20 10 13 10 17 0 20 -11 4
-11 8 0 20 10 13 10 17 0 20 -11 4 -11 8 0 20 10 13 10 17 0 20 -10 4 -10 8 1
21 7 10 9 17 4 17 -5 0 -10 14 -10 30 0 17 5 30 10 30 6 0 6 5 0 13 -11 14
-11 137 0 155 5 6 4 12 -1 12 -11 0 -10 49 1 67 4 6 1 13 -5 16 -10 3 -10 7 0
19 10 13 10 17 0 20 -11 4 -11 8 0 20 10 13 10 17 1 20 -8 3 -9 9 -3 19 5 8 9
385 9 899 0 487 4 891 9 899 6 9 1 21 -15 36 -37 35 -4214 3378 -4227 3382 -4
2 -70 -50 -147 -115z m370 -1273 c387 -12 400 -15 442 -78 28 -41 31 -115 7
-151 -9 -14 -51 -60 -92 -102 l-75 -76 44 -5 c24 -3 179 -15 344 -27 433 -31
471 -35 500 -54 56 -37 80 -115 54 -183 -5 -15 -49 -67 -96 -114 -101 -103
-111 -94 122 -104 83 -4 265 -15 406 -24 237 -17 259 -20 289 -41 53 -38 74
-112 49 -177 -5 -15 -164 -182 -352 -370 l-342 -343 65 -65 c35 -36 70 -65 78
-65 14 0 141 -28 292 -66 69 -17 99 -29 111 -46 25 -32 29 -68 14 -103 -7 -16
-125 -141 -262 -277 -245 -244 -250 -248 -290 -248 -77 0 -87 18 -139 245
l-47 200 -146 148 c-87 88 -162 155 -186 166 -31 15 -83 21 -235 30 -107 7
-224 14 -260 18 l-65 5 3 43 c9 104 -57 244 -145 311 -87 66 -160 81 -499 100
l-122 6 -4 77 c-5 93 -37 169 -98 235 -44 47 -147 106 -186 106 -21 0 -22 4
-28 143 -15 330 -24 820 -16 841 5 13 21 34 37 46 31 25 -11 25 828 -1z
m-1345 -1230 c239 -6 452 -15 472 -20 47 -12 95 -60 104 -104 13 -70 -2 -101
-92 -195 -102 -105 -123 -93 196 -115 463 -32 573 -44 600 -63 61 -45 84 -114
60 -178 -6 -15 -49 -67 -97 -115 l-85 -88 33 -5 c38 -6 262 -21 544 -36 282
-15 291 -17 330 -52 46 -40 62 -94 46 -150 -11 -37 -63 -93 -352 -383 -186
-187 -339 -345 -339 -351 0 -5 26 -35 58 -66 55 -55 60 -57 152 -77 252 -54
304 -69 328 -96 15 -18 22 -39 22 -68 0 -40 -4 -45 -252 -294 -273 -274 -291
-287 -352 -258 -32 16 -66 64 -66 97 0 7 -18 87 -39 177 l-39 164 -61 61 -61
61 -347 -347 c-374 -372 -371 -370 -456 -354 -85 16 -112 68 -121 231 -17 306
-37 615 -42 669 l-6 58 -82 -79 c-44 -44 -92 -88 -106 -97 -34 -22 -107 -21
-147 4 -68 41 -68 41 -102 540 -12 162 -24 317 -27 343 l-6 48 -88 -85 c-94
-91 -115 -101 -186 -93 -55 6 -100 44 -114 97 -5 19 -14 197 -20 395 -5 198
-13 453 -17 567 l-6 207 37 37 37 37 127 -6 c70 -3 323 -11 562 -18z"/>
</g>
</svg>
